<svg width="288" height="98" viewBox="0 0 288 98" fill="none" xmlns="http://www.w3.org/2000/svg">
<path d="M1.47955 65.881H0.00889587L2.74596 51.5829H5.05407L7.79113 65.881H6.19792L5.64642 63.001H2.03105L1.47955 65.881ZM5.42174 61.6324L3.8081 53.3804L2.23531 61.6324H5.42174Z" fill="#75E2F8"/>
<path d="M12.1189 51.4399C13.1946 51.4399 13.998 51.76 14.5291 52.4C15.0738 53.04 15.3461 53.9183 15.3461 55.0349V56.3217H13.8346V54.9532C13.8346 53.5779 13.2763 52.8902 12.1597 52.8902C11.6014 52.8902 11.1793 53.074 10.8933 53.4417C10.621 53.7957 10.4848 54.2996 10.4848 54.9532V62.5107C10.4848 63.1644 10.621 63.675 10.8933 64.0427C11.1793 64.3967 11.6014 64.5737 12.1597 64.5737C13.2763 64.5737 13.8346 63.8861 13.8346 62.5107V60.652H15.3461V62.429C15.3461 63.5456 15.0738 64.424 14.5291 65.064C13.998 65.704 13.1946 66.024 12.1189 66.024C11.0567 66.024 10.2533 65.704 9.7086 65.064C9.17753 64.424 8.912 63.5456 8.912 62.429V55.0349C8.912 53.9183 9.17753 53.04 9.7086 52.4C10.2533 51.76 11.0567 51.4399 12.1189 51.4399Z" fill="#75E2F8"/>
<path d="M21.88 59.3447H18.3872V64.4308H22.6766V65.881H16.794V51.5829H22.6766V53.0332H18.3872V57.9149H21.88V59.3447Z" fill="#75E2F8"/>
<path d="M24.1544 51.5829H25.7477V64.4308H29.8328V65.881H24.1544V51.5829Z" fill="#75E2F8"/>
<path d="M36.1222 59.3447H32.6294V64.4308H36.9188V65.881H31.0362V51.5829H36.9188V53.0332H32.6294V57.9149H36.1222V59.3447Z" fill="#75E2F8"/>
<path d="M41.5831 51.5829C42.6861 51.5829 43.4895 51.8553 43.9933 52.4C44.5108 52.9447 44.7695 53.7617 44.7695 54.8511V56.0153C44.7695 56.8051 44.6265 57.4451 44.3406 57.9354C44.0546 58.4256 43.6052 58.766 42.9925 58.9566C43.6189 59.1473 44.075 59.4945 44.361 59.9984C44.647 60.4886 44.7899 61.1354 44.7899 61.9388V64.1652C44.7899 64.5601 44.8036 64.8938 44.8308 65.1661C44.8716 65.4248 44.9534 65.6631 45.0759 65.881H43.4623C43.3669 65.6631 43.2989 65.4384 43.258 65.2069C43.2172 64.9618 43.1967 64.6078 43.1967 64.1448V61.898C43.1967 61.1218 43.0197 60.5771 42.6657 60.2639C42.3252 59.9371 41.8078 59.7737 41.1133 59.7737H39.9899V65.881H38.3967V51.5829H41.5831ZM41.1746 58.3234C41.8554 58.3234 42.3593 58.1805 42.6861 57.8945C43.0265 57.6085 43.1967 57.0979 43.1967 56.3626V54.994C43.1967 54.3404 43.0674 53.8502 42.8086 53.5234C42.5499 53.1966 42.1278 53.0332 41.5422 53.0332H39.9899V58.3234H41.1746Z" fill="#75E2F8"/>
<path d="M47.4975 65.881H46.0268L48.7639 51.5829H51.072L53.8091 65.881H52.2158L51.6643 63.001H48.049L47.4975 65.881ZM51.4397 61.6324L49.826 53.3804L48.2532 61.6324H51.4397Z" fill="#75E2F8"/>
<path d="M58.1368 51.4399C59.2125 51.4399 60.0159 51.76 60.547 52.4C61.0917 53.04 61.3641 53.9183 61.3641 55.0349V56.3217H59.8525V54.9532C59.8525 53.5779 59.2942 52.8902 58.1776 52.8902C57.6193 52.8902 57.1972 53.074 56.9112 53.4417C56.6389 53.7957 56.5027 54.2996 56.5027 54.9532V62.5107C56.5027 63.1644 56.6389 63.675 56.9112 64.0427C57.1972 64.3967 57.6193 64.5737 58.1776 64.5737C59.2942 64.5737 59.8525 63.8861 59.8525 62.5107V60.652H61.3641V62.429C61.3641 63.4776 61.1189 64.3218 60.6287 64.9618C60.1521 65.6018 59.4372 65.9491 58.484 66.0036V66.6368C58.9606 66.6368 59.3283 66.7253 59.587 66.9023C59.8594 67.0929 59.9955 67.3517 59.9955 67.6785C59.9955 68.087 59.8253 68.407 59.4849 68.6385C59.1444 68.87 58.6678 68.9857 58.0551 68.9857C57.4695 68.9857 57.0065 68.87 56.6661 68.6385C56.3393 68.4206 56.1759 68.1142 56.1759 67.7193V67.5559H57.2176V67.6989C57.2176 67.8623 57.2925 67.9985 57.4423 68.1074C57.5921 68.2164 57.7963 68.2776 58.0551 68.2912C58.3274 68.2912 58.5385 68.23 58.6883 68.1074C58.8517 67.9985 58.9334 67.8419 58.9334 67.6376C58.9334 67.447 58.8449 67.2972 58.6678 67.1883C58.4908 67.0793 58.2457 67.0248 57.9325 67.0248H57.7487V66.0036C56.8091 65.9355 56.101 65.5882 55.6244 64.9618C55.1614 64.3218 54.9299 63.4776 54.9299 62.429V55.0349C54.9299 53.9183 55.1955 53.04 55.7265 52.4C56.2712 51.76 57.0746 51.4399 58.1368 51.4399Z" fill="#75E2F8"/>
<path d="M65.2834 49.0093C65.4877 49.0093 65.6647 49.0365 65.8145 49.091C65.9643 49.1454 66.1481 49.234 66.366 49.3565C66.6928 49.5335 66.9583 49.6221 67.1626 49.6221C67.5166 49.5948 67.789 49.3906 67.9796 49.0093L68.7762 49.5608C68.463 50.337 67.966 50.725 67.2851 50.725C67.0945 50.725 66.9243 50.6978 66.7745 50.6433C66.6247 50.5889 66.4477 50.5072 66.2434 50.3982C65.9166 50.2212 65.6511 50.1327 65.4468 50.1327C65.2562 50.1327 65.0928 50.1804 64.9566 50.2757C64.8204 50.3574 64.6979 50.514 64.5889 50.7455L63.7923 50.194C64.0919 49.4314 64.5889 49.0365 65.2834 49.0093ZM63.874 65.881H62.4034L65.1404 51.5829H67.4485L70.1856 65.881H68.5924L68.0409 63.001H64.4255L63.874 65.881ZM67.8162 61.6324L66.2026 53.3804L64.6298 61.6324H67.8162Z" fill="#75E2F8"/>
<path d="M71.3065 55.0349C71.3065 53.9183 71.5788 53.04 72.1235 52.4C72.6818 51.76 73.4988 51.4399 74.5746 51.4399C75.6504 51.4399 76.4674 51.76 77.0257 52.4C77.584 53.04 77.8632 53.9183 77.8632 55.0349V62.429C77.8632 63.5456 77.584 64.424 77.0257 65.064C76.4674 65.704 75.6504 66.024 74.5746 66.024C73.5125 66.024 72.7022 65.704 72.1439 65.064C71.5856 64.424 71.3065 63.5456 71.3065 62.429V55.0349ZM72.8793 62.5107C72.8793 63.178 73.0222 63.6886 73.3082 64.0427C73.5942 64.3967 74.0163 64.5737 74.5746 64.5737C75.7048 64.5737 76.27 63.8861 76.27 62.5107V54.9532C76.27 54.2996 76.127 53.7957 75.841 53.4417C75.5687 53.074 75.1465 52.8902 74.5746 52.8902C74.0163 52.8902 73.5942 53.074 73.3082 53.4417C73.0222 53.7957 72.8793 54.2996 72.8793 54.9532V62.5107Z" fill="#75E2F8"/>
<path d="M85.8895 51.705C86.9788 51.705 87.7891 52.0182 88.3201 52.6446C88.8648 53.2574 89.1372 54.1289 89.1372 55.2591V62.4694C89.1372 63.586 88.8648 64.4575 88.3201 65.0839C87.7891 65.6967 86.9788 66.0031 85.8895 66.0031H82.5396V51.705H85.8895ZM85.869 64.5528C86.9993 64.5528 87.5644 63.8788 87.5644 62.5307V55.1774C87.5644 53.8293 86.9925 53.1552 85.8486 53.1552H84.1328V64.5528H85.869Z" fill="#75E2F8"/>
<path d="M92.2314 66.0031H90.6382V51.705H92.2314V66.0031Z" fill="#75E2F8"/>
<path d="M96.9539 51.562C98.0296 51.562 98.8331 51.882 99.3641 52.522C99.9088 53.162 100.181 54.0403 100.181 55.157V56.3825H98.6696V55.0753C98.6696 53.6999 98.1113 53.0122 96.9947 53.0122C96.4364 53.0122 96.0143 53.1961 95.7283 53.5637C95.456 53.9178 95.3198 54.4216 95.3198 55.0753V62.6328C95.3198 63.2864 95.456 63.7971 95.7283 64.1647C96.0143 64.5188 96.4364 64.6958 96.9947 64.6958C98.1113 64.6958 98.6696 64.0081 98.6696 62.6328V59.7732H97.199V58.3434H100.181V62.5511C100.181 63.6677 99.9088 64.546 99.3641 65.186C98.8331 65.826 98.0296 66.146 96.9539 66.146C95.8917 66.146 95.0883 65.826 94.5436 65.186C94.0126 64.546 93.747 63.6677 93.747 62.5511V55.157C93.747 54.0403 94.0126 53.162 94.5436 52.522C95.0883 51.882 95.8917 51.562 96.9539 51.562Z" fill="#75E2F8"/>
<path d="M103.282 66.0031H101.689V51.705H103.282V66.0031Z" fill="#75E2F8"/>
<path d="M106.983 53.1552H104.348V51.705H111.191V53.1552H108.556V66.0031H106.983V53.1552Z" fill="#75E2F8"/>
<path d="M112.565 66.0031H111.094L113.831 51.705H116.139L118.877 66.0031H117.283L116.732 63.123H113.116L112.565 66.0031ZM116.507 61.7545L114.893 53.5025L113.321 61.7545H116.507Z" fill="#75E2F8"/>
<path d="M120.12 51.705H121.713V64.5528H125.798V66.0031H120.12V51.705Z" fill="#75E2F8"/>
<path d="M133.523 51.705C134.612 51.705 135.423 52.0182 135.954 52.6446C136.498 53.2574 136.771 54.1289 136.771 55.2591V62.4694C136.771 63.586 136.498 64.4575 135.954 65.0839C135.423 65.6967 134.612 66.0031 133.523 66.0031H130.173V51.705H133.523ZM133.503 64.5528C134.633 64.5528 135.198 63.8788 135.198 62.5307V55.1774C135.198 53.8293 134.626 53.1552 133.482 53.1552H131.766V64.5528H133.503Z" fill="white"/>
<path d="M138.149 55.157C138.149 54.0403 138.422 53.162 138.966 52.522C139.525 51.882 140.342 51.562 141.417 51.562C142.493 51.562 143.31 51.882 143.868 52.522C144.427 53.162 144.706 54.0403 144.706 55.157V62.5511C144.706 63.6677 144.427 64.546 143.868 65.186C143.31 65.826 142.493 66.146 141.417 66.146C140.355 66.146 139.545 65.826 138.987 65.186C138.428 64.546 138.149 63.6677 138.149 62.5511V55.157ZM139.722 62.6328C139.722 63.3 139.865 63.8107 140.151 64.1647C140.437 64.5188 140.859 64.6958 141.417 64.6958C142.548 64.6958 143.113 64.0081 143.113 62.6328V55.0753C143.113 54.4216 142.97 53.9178 142.684 53.5637C142.411 53.1961 141.989 53.0122 141.417 53.0122C140.859 53.0122 140.437 53.1961 140.151 53.5637C139.865 53.9178 139.722 54.4216 139.722 55.0753V62.6328Z" fill="white"/>
<path d="M149.213 51.562C150.262 51.562 151.052 51.882 151.583 52.522C152.127 53.1484 152.4 54.0199 152.4 55.1365V55.5246H150.888V55.0548C150.888 53.6931 150.344 53.0122 149.254 53.0122C148.165 53.0122 147.62 53.6863 147.62 55.0344C147.62 55.7153 147.804 56.294 148.172 56.7706C148.539 57.2336 149.091 57.751 149.826 58.323C150.412 58.8132 150.868 59.2285 151.195 59.5689C151.535 59.9094 151.821 60.3315 152.052 60.8353C152.298 61.3392 152.42 61.9179 152.42 62.5715C152.42 63.6881 152.148 64.5664 151.603 65.2065C151.058 65.8328 150.255 66.146 149.193 66.146C148.131 66.146 147.327 65.8328 146.783 65.2065C146.252 64.5664 145.986 63.6881 145.986 62.5715V61.7545H147.477V62.6532C147.477 63.3069 147.613 63.8107 147.886 64.1647C148.172 64.5188 148.594 64.6958 149.152 64.6958C149.71 64.6958 150.126 64.5188 150.398 64.1647C150.684 63.8107 150.827 63.3069 150.827 62.6532C150.827 61.986 150.643 61.4209 150.275 60.9579C149.921 60.4949 149.377 59.9706 148.641 59.3851C148.083 58.9221 147.627 58.5204 147.273 58.18C146.932 57.8259 146.64 57.397 146.395 56.8931C146.163 56.3757 146.047 55.7902 146.047 55.1365C146.047 54.0063 146.313 53.128 146.844 52.5016C147.375 51.8752 148.165 51.562 149.213 51.562Z" fill="white"/>
<path d="M159.985 51.562C161.033 51.562 161.823 51.882 162.354 52.522C162.899 53.1484 163.171 54.0199 163.171 55.1365V55.5246H161.66V55.0548C161.66 53.6931 161.115 53.0122 160.026 53.0122C158.936 53.0122 158.392 53.6863 158.392 55.0344C158.392 55.7153 158.575 56.294 158.943 56.7706C159.311 57.2336 159.862 57.751 160.598 58.323C161.183 58.8132 161.639 59.2285 161.966 59.5689C162.306 59.9094 162.592 60.3315 162.824 60.8353C163.069 61.3392 163.192 61.9179 163.192 62.5715C163.192 63.6881 162.919 64.5664 162.375 65.2065C161.83 65.8328 161.026 66.146 159.964 66.146C158.902 66.146 158.099 65.8328 157.554 65.2065C157.023 64.5664 156.757 63.6881 156.757 62.5715V61.7545H158.249V62.6532C158.249 63.3069 158.385 63.8107 158.657 64.1647C158.943 64.5188 159.365 64.6958 159.923 64.6958C160.482 64.6958 160.897 64.5188 161.169 64.1647C161.455 63.8107 161.598 63.3069 161.598 62.6532C161.598 61.986 161.415 61.4209 161.047 60.9579C160.693 60.4949 160.148 59.9706 159.413 59.3851C158.855 58.9221 158.398 58.5204 158.044 58.18C157.704 57.8259 157.411 57.397 157.166 56.8931C156.934 56.3757 156.819 55.7902 156.819 55.1365C156.819 54.0063 157.084 53.128 157.615 52.5016C158.146 51.8752 158.936 51.562 159.985 51.562Z" fill="white"/>
<path d="M169.668 59.4668H166.175V64.5528H170.465V66.0031H164.582V51.705H170.465V53.1552H166.175V58.037H169.668V59.4668Z" fill="white"/>
<path d="M173.454 62.6328C173.454 64.0081 174.012 64.6958 175.129 64.6958C175.687 64.6958 176.103 64.5188 176.375 64.1647C176.647 63.8107 176.783 63.3 176.783 62.6328V51.705H178.274V62.5511C178.274 63.6813 178.009 64.5664 177.478 65.2065C176.947 65.8465 176.143 66.1665 175.068 66.1665C174.005 66.1665 173.209 65.8465 172.678 65.2065C172.147 64.5528 171.881 63.6677 171.881 62.5511V51.705H173.454V62.6328Z" fill="white"/>
<path d="M182.844 51.562C183.893 51.562 184.682 51.882 185.214 52.522C185.758 53.1484 186.031 54.0199 186.031 55.1365V55.5246H184.519V55.0548C184.519 53.6931 183.974 53.0122 182.885 53.0122C181.796 53.0122 181.251 53.6863 181.251 55.0344C181.251 55.7153 181.435 56.294 181.802 56.7706C182.17 57.2336 182.722 57.751 183.457 58.323C184.042 58.8132 184.499 59.2285 184.825 59.5689C185.166 59.9094 185.452 60.3315 185.683 60.8353C185.928 61.3392 186.051 61.9179 186.051 62.5715C186.051 63.6881 185.779 64.5664 185.234 65.2065C184.689 65.8328 183.886 66.146 182.824 66.146C181.762 66.146 180.958 65.8328 180.413 65.2065C179.882 64.5664 179.617 63.6881 179.617 62.5715V61.7545H181.108V62.6532C181.108 63.3069 181.244 63.8107 181.516 64.1647C181.802 64.5188 182.225 64.6958 182.783 64.6958C183.341 64.6958 183.756 64.5188 184.029 64.1647C184.315 63.8107 184.458 63.3069 184.458 62.6532C184.458 61.986 184.274 61.4209 183.906 60.9579C183.552 60.4949 183.008 59.9706 182.272 59.3851C181.714 58.9221 181.258 58.5204 180.904 58.18C180.563 57.8259 180.27 57.397 180.025 56.8931C179.794 56.3757 179.678 55.7902 179.678 55.1365C179.678 54.0063 179.944 53.128 180.475 52.5016C181.006 51.8752 181.796 51.562 182.844 51.562Z" fill="white"/>
<path d="M192.206 66.0031H190.613V51.705H192.206V66.0031Z" fill="#75E2F8"/>
<path d="M193.824 66.0031V51.705H195.846L199.155 62.0405V51.705H200.564V66.0031H198.91L195.254 54.4421V66.0031H193.824Z" fill="#75E2F8"/>
<path d="M205.736 64.1443L208.044 51.705H209.515L206.839 66.0031H204.49L201.794 51.705H203.407L205.736 64.1443Z" fill="#75E2F8"/>
<path d="M215.825 59.4668H212.333V64.5528H216.622V66.0031H210.739V51.705H216.622V53.1552H212.333V58.037H215.825V59.4668Z" fill="#75E2F8"/>
<path d="M221.102 51.562C222.151 51.562 222.941 51.882 223.472 52.522C224.017 53.1484 224.289 54.0199 224.289 55.1365V55.5246H222.777V55.0548C222.777 53.6931 222.233 53.0122 221.143 53.0122C220.054 53.0122 219.509 53.6863 219.509 55.0344C219.509 55.7153 219.693 56.294 220.061 56.7706C220.428 57.2336 220.98 57.751 221.715 58.323C222.301 58.8132 222.757 59.2285 223.084 59.5689C223.424 59.9094 223.71 60.3315 223.942 60.8353C224.187 61.3392 224.309 61.9179 224.309 62.5715C224.309 63.6881 224.037 64.5664 223.492 65.2065C222.948 65.8328 222.144 66.146 221.082 66.146C220.02 66.146 219.216 65.8328 218.672 65.2065C218.141 64.5664 217.875 63.6881 217.875 62.5715V61.7545H219.366V62.6532C219.366 63.3069 219.502 63.8107 219.775 64.1647C220.061 64.5188 220.483 64.6958 221.041 64.6958C221.6 64.6958 222.015 64.5188 222.287 64.1647C222.573 63.8107 222.716 63.3069 222.716 62.6532C222.716 61.986 222.532 61.4209 222.165 60.9579C221.811 60.4949 221.266 59.9706 220.531 59.3851C219.972 58.9221 219.516 58.5204 219.162 58.18C218.822 57.8259 218.529 57.397 218.284 56.8931C218.052 56.3757 217.936 55.7902 217.936 55.1365C217.936 54.0063 218.202 53.128 218.733 52.5016C219.264 51.8752 220.054 51.562 221.102 51.562Z" fill="#75E2F8"/>
<path d="M227.783 53.1552H225.148V51.705H232.011V53.1552H229.376V66.0031H227.783V53.1552Z" fill="#75E2F8"/>
<path d="M234.713 66.0031H233.12V51.705H234.713V66.0031Z" fill="#75E2F8"/>
<path d="M240.089 65.9826L237.72 54.6055V66.0031H236.331V51.705H238.557L240.906 63.123L243.174 51.705H245.4V66.0031H243.889V54.5033L241.621 65.9826H240.089Z" fill="#75E2F8"/>
<path d="M252.129 59.4668H248.636V64.5528H252.926V66.0031H247.043V51.705H252.926V53.1552H248.636V58.037H252.129V59.4668Z" fill="#75E2F8"/>
<path d="M254.383 66.0031V51.705H256.405L259.714 62.0405V51.705H261.124V66.0031H259.469L255.813 54.4421V66.0031H254.383Z" fill="#75E2F8"/>
<path d="M264.845 53.1552H262.21V51.705H269.073V53.1552H266.438V66.0031H264.845V53.1552Z" fill="#75E2F8"/>
<path d="M270.059 55.157C270.059 54.0403 270.332 53.162 270.876 52.522C271.435 51.882 272.252 51.562 273.327 51.562C274.403 51.562 275.22 51.882 275.778 52.522C276.337 53.162 276.616 54.0403 276.616 55.157V62.5511C276.616 63.6677 276.337 64.546 275.778 65.186C275.22 65.826 274.403 66.146 273.327 66.146C272.265 66.146 271.455 65.826 270.897 65.186C270.338 64.546 270.059 63.6677 270.059 62.5511V55.157ZM271.632 62.6328C271.632 63.3 271.775 63.8107 272.061 64.1647C272.347 64.5188 272.769 64.6958 273.327 64.6958C274.458 64.6958 275.023 64.0081 275.023 62.6328V55.0753C275.023 54.4216 274.88 53.9178 274.594 53.5637C274.321 53.1961 273.899 53.0122 273.327 53.0122C272.769 53.0122 272.347 53.1961 272.061 53.5637C271.775 53.9178 271.632 54.4216 271.632 55.0753V62.6328Z" fill="#75E2F8"/>
<path d="M281.123 51.562C282.172 51.562 282.962 51.882 283.493 52.522C284.037 53.1484 284.31 54.0199 284.31 55.1365V55.5246H282.798V55.0548C282.798 53.6931 282.254 53.0122 281.164 53.0122C280.075 53.0122 279.53 53.6863 279.53 55.0344C279.53 55.7153 279.714 56.294 280.082 56.7706C280.449 57.2336 281.001 57.751 281.736 58.323C282.322 58.8132 282.778 59.2285 283.105 59.5689C283.445 59.9094 283.731 60.3315 283.962 60.8353C284.208 61.3392 284.33 61.9179 284.33 62.5715C284.33 63.6881 284.058 64.5664 283.513 65.2065C282.968 65.8328 282.165 66.146 281.103 66.146C280.041 66.146 279.237 65.8328 278.693 65.2065C278.162 64.5664 277.896 63.6881 277.896 62.5715V61.7545H279.387V62.6532C279.387 63.3069 279.523 63.8107 279.796 64.1647C280.082 64.5188 280.504 64.6958 281.062 64.6958C281.62 64.6958 282.036 64.5188 282.308 64.1647C282.594 63.8107 282.737 63.3069 282.737 62.6532C282.737 61.986 282.553 61.4209 282.185 60.9579C281.831 60.4949 281.287 59.9706 280.551 59.3851C279.993 58.9221 279.537 58.5204 279.183 58.18C278.842 57.8259 278.55 57.397 278.304 56.8931C278.073 56.3757 277.957 55.7902 277.957 55.1365C277.957 54.0063 278.223 53.128 278.754 52.5016C279.285 51.8752 280.075 51.562 281.123 51.562Z" fill="#75E2F8"/>
<path d="M3.95117 39.1814H0L7.35356 0.539551H13.5547L20.9083 39.1814H16.6278L15.1461 31.3978H5.43285L3.95117 39.1814ZM14.5425 27.6992L10.2072 5.39738L5.98163 27.6992H14.5425Z" fill="white"/>
<path d="M33.578 39.1814H29.4622V33.8267H33.578V39.1814Z" fill="white"/>
<path d="M52.1965 0.539551C55.1232 0.539551 57.3 1.38599 58.7269 3.07887C60.1902 4.73495 60.9219 7.09026 60.9219 10.1448V29.6313C60.9219 32.6491 60.1902 35.0044 58.7269 36.6973C57.3 38.3534 55.1232 39.1814 52.1965 39.1814H43.1966V0.539551H52.1965ZM52.1416 35.262C55.1781 35.262 56.6964 33.4403 56.6964 29.7969V9.924C56.6964 6.28063 55.1598 4.45894 52.0867 4.45894H47.477V35.262H52.1416Z" fill="white"/>
<path d="M74.2837 39.1814H70.1679V33.8267H74.2837V39.1814Z" fill="white"/>
<path d="M88.1827 39.1814H83.9022V0.539551H88.1827V39.1814Z" fill="white"/>
<rect x="191.505" y="22.5342" width="8.1632" height="7.29621" fill="#75E2F8"/>
<rect x="195.191" y="13.0083" width="0.789987" height="18.5783" fill="#75E2F8"/>
<rect width="8.1632" height="7.29621" transform="matrix(-1 0 0 1 216.712 29.9653)" fill="#75E2F8"/>
<rect width="0.789987" height="18.5783" transform="matrix(-1 0 0 1 213.025 20.4399)" fill="#75E2F8"/>
<rect x="174.591" y="24.02" width="8.1632" height="2.83742" fill="#75E2F8"/>
<rect x="178.278" y="15.5083" width="0.789987" height="17.565" fill="#75E2F8"/>
<rect width="8.1632" height="2.83742" transform="matrix(-1 0 0 1 233.625 31.4512)" fill="#75E2F8"/>
<rect width="0.789987" height="17.565" transform="matrix(-1 0 0 1 229.939 22.9395)" fill="#75E2F8"/>
<rect x="157.679" y="18.6831" width="8.1632" height="8.17446" fill="#75E2F8"/>
<rect x="161.365" y="12.873" width="0.789987" height="16.0787" fill="#75E2F8"/>
<rect width="8.1632" height="8.17446" transform="matrix(-1 0 0 1 250.538 26.1143)" fill="#75E2F8"/>
<rect width="0.789987" height="16.0787" transform="matrix(-1 0 0 1 246.852 20.3042)" fill="#75E2F8"/>
<rect x="140.765" y="18.6836" width="8.1632" height="1.48627" fill="#75E2F8"/>
<rect x="144.452" y="11.3193" width="0.789987" height="16.0111" fill="#75E2F8"/>
<rect width="8.1632" height="1.48627" transform="matrix(-1 0 0 1 267.451 26.1147)" fill="#75E2F8"/>
<rect width="0.789987" height="16.0111" transform="matrix(-1 0 0 1 263.765 18.7505)" fill="#75E2F8"/>
<rect x="123.852" y="5.20068" width="8.1632" height="17.7676" fill="#75E2F8"/>
<rect x="127.539" y="0.539551" width="0.789987" height="23.51" fill="#75E2F8"/>
<rect width="8.1632" height="17.7676" transform="matrix(-1 0 0 1 284.365 8.75195)" fill="#75E2F8"/>
<rect width="0.789987" height="23.51" transform="matrix(-1 0 0 1 280.678 4.09082)" fill="#75E2F8"/>
<path d="M205.279 87.7334C205.997 87.7334 206.534 87.9488 206.889 88.3795C207.253 88.8103 207.435 89.4015 207.435 90.153V91.0191H206.425V90.098C206.425 89.1723 206.052 88.7095 205.306 88.7095C204.933 88.7095 204.651 88.8332 204.46 89.0807C204.278 89.319 204.187 89.6581 204.187 90.098V95.1848C204.187 95.6247 204.278 95.9684 204.46 96.2159C204.651 96.4542 204.933 96.5733 205.306 96.5733C206.052 96.5733 206.425 96.1105 206.425 95.1848V93.9337H207.435V95.1298C207.435 95.8813 207.253 96.4725 206.889 96.9032C206.534 97.334 205.997 97.5494 205.279 97.5494C204.569 97.5494 204.033 97.334 203.669 96.9032C203.314 96.4725 203.137 95.8813 203.137 95.1298V90.153C203.137 89.4015 203.314 88.8103 203.669 88.3795C204.033 87.9488 204.569 87.7334 205.279 87.7334Z" fill="#8DF1FF"/>
<path d="M208.32 90.153C208.32 89.4015 208.502 88.8103 208.866 88.3795C209.239 87.9488 209.784 87.7334 210.503 87.7334C211.222 87.7334 211.767 87.9488 212.14 88.3795C212.513 88.8103 212.7 89.4015 212.7 90.153V95.1298C212.7 95.8813 212.513 96.4725 212.14 96.9032C211.767 97.334 211.222 97.5494 210.503 97.5494C209.793 97.5494 209.252 97.334 208.879 96.9032C208.506 96.4725 208.32 95.8813 208.32 95.1298V90.153ZM209.371 95.1848C209.371 95.6339 209.466 95.9776 209.657 96.2159C209.848 96.4542 210.13 96.5733 210.503 96.5733C211.258 96.5733 211.636 96.1105 211.636 95.1848V90.098C211.636 89.6581 211.54 89.319 211.349 89.0807C211.167 88.8332 210.885 88.7095 210.503 88.7095C210.13 88.7095 209.848 88.8332 209.657 89.0807C209.466 89.319 209.371 89.6581 209.371 90.098V95.1848Z" fill="#8DF1FF"/>
<path d="M216.202 97.4394L214.619 89.7818V97.4532H213.691V87.8296H215.179L216.748 95.5147L218.262 87.8296H219.75V97.4532H218.74V89.7131L217.225 97.4394H216.202Z" fill="#8DF1FF"/>
<path d="M225.026 87.7334C225.745 87.7334 226.281 87.9488 226.636 88.3795C227 88.8103 227.182 89.4015 227.182 90.153V90.9779H226.172V90.098C226.172 89.1723 225.799 88.7095 225.053 88.7095C224.681 88.7095 224.399 88.8332 224.207 89.0807C224.026 89.319 223.935 89.6581 223.935 90.098V95.1848C223.935 95.6247 224.026 95.9684 224.207 96.2159C224.399 96.4542 224.681 96.5733 225.053 96.5733C225.799 96.5733 226.172 96.1105 226.172 95.1848V93.2601H225.19V92.2977H227.182V95.1298C227.182 95.8813 227 96.4725 226.636 96.9032C226.281 97.334 225.745 97.5494 225.026 97.5494C224.317 97.5494 223.78 97.334 223.416 96.9032C223.061 96.4725 222.884 95.8813 222.884 95.1298V90.153C222.884 89.4015 223.061 88.8103 223.416 88.3795C223.78 87.9488 224.317 87.7334 225.026 87.7334Z" fill="#8DF1FF"/>
<path d="M229.199 95.1848C229.199 96.1105 229.572 96.5733 230.318 96.5733C230.691 96.5733 230.968 96.4542 231.15 96.2159C231.332 95.9776 231.423 95.6339 231.423 95.1848V87.8296H232.419V95.1298C232.419 95.8905 232.242 96.4862 231.887 96.917C231.532 97.3478 230.995 97.5631 230.277 97.5631C229.567 97.5631 229.035 97.3478 228.68 96.917C228.326 96.4771 228.148 95.8813 228.148 95.1298V87.8296H229.199V95.1848Z" fill="#8DF1FF"/>
<path d="M235.472 87.7334C236.172 87.7334 236.7 87.9488 237.054 88.3795C237.418 88.8012 237.6 89.3877 237.6 90.1393V90.4005H236.59V90.0843C236.59 89.1678 236.227 88.7095 235.499 88.7095C234.771 88.7095 234.407 89.1632 234.407 90.0705C234.407 90.5288 234.53 90.9183 234.776 91.2391C235.021 91.5507 235.39 91.899 235.881 92.284C236.272 92.6139 236.577 92.8934 236.795 93.1226C237.023 93.3517 237.214 93.6358 237.368 93.9749C237.532 94.3141 237.614 94.7036 237.614 95.1435C237.614 95.8951 237.432 96.4862 237.068 96.917C236.704 97.3386 236.167 97.5494 235.458 97.5494C234.748 97.5494 234.212 97.3386 233.848 96.917C233.493 96.4862 233.316 95.8951 233.316 95.1435V94.5936H234.312V95.1985C234.312 95.6384 234.403 95.9776 234.585 96.2159C234.776 96.4542 235.058 96.5733 235.431 96.5733C235.804 96.5733 236.081 96.4542 236.263 96.2159C236.454 95.9776 236.55 95.6384 236.55 95.1985C236.55 94.7494 236.427 94.3691 236.181 94.0574C235.945 93.7458 235.581 93.393 235.09 92.9988C234.717 92.6872 234.412 92.4169 234.175 92.1877C233.948 91.9494 233.752 91.6607 233.589 91.3216C233.434 90.9733 233.357 90.5792 233.357 90.1393C233.357 89.3786 233.534 88.7874 233.889 88.3658C234.244 87.9442 234.771 87.7334 235.472 87.7334Z" fill="#8DF1FF"/>
<path d="M239.921 88.8057H238.161V87.8296H242.731V88.8057H240.971V97.4532H239.921V88.8057Z" fill="#8DF1FF"/>
<path d="M243.649 97.4532H242.667L244.495 87.8296H246.037L247.866 97.4532H246.801L246.433 95.5147H244.018L243.649 97.4532ZM246.283 94.5936L245.205 89.0394L244.154 94.5936H246.283Z" fill="#8DF1FF"/>
<path d="M250.71 96.2021L252.252 87.8296H253.234L251.447 97.4532H249.878L248.077 87.8296H249.155L250.71 96.2021Z" fill="#8DF1FF"/>
<path d="M253.958 90.153C253.958 89.4015 254.139 88.8103 254.503 88.3795C254.876 87.9488 255.422 87.7334 256.141 87.7334C256.859 87.7334 257.405 87.9488 257.778 88.3795C258.151 88.8103 258.337 89.4015 258.337 90.153V95.1298C258.337 95.8813 258.151 96.4725 257.778 96.9032C257.405 97.334 256.859 97.5494 256.141 97.5494C255.431 97.5494 254.89 97.334 254.517 96.9032C254.144 96.4725 253.958 95.8813 253.958 95.1298V90.153ZM255.008 95.1848C255.008 95.6339 255.104 95.9776 255.295 96.2159C255.486 96.4542 255.768 96.5733 256.141 96.5733C256.896 96.5733 257.273 96.1105 257.273 95.1848V90.098C257.273 89.6581 257.178 89.319 256.987 89.0807C256.805 88.8332 256.523 88.7095 256.141 88.7095C255.768 88.7095 255.486 88.8332 255.295 89.0807C255.104 89.319 255.008 89.6581 255.008 90.098V95.1848Z" fill="#8DF1FF"/>
<path d="M263.522 87.7334C264.24 87.7334 264.777 87.9488 265.132 88.3795C265.496 88.8103 265.678 89.4015 265.678 90.153V91.0191H264.668V90.098C264.668 89.1723 264.295 88.7095 263.549 88.7095C263.176 88.7095 262.894 88.8332 262.703 89.0807C262.521 89.319 262.43 89.6581 262.43 90.098V95.1848C262.43 95.6247 262.521 95.9684 262.703 96.2159C262.894 96.4542 263.176 96.5733 263.549 96.5733C264.295 96.5733 264.668 96.1105 264.668 95.1848V93.9337H265.678V95.1298C265.678 95.8813 265.496 96.4725 265.132 96.9032C264.777 97.334 264.24 97.5494 263.522 97.5494C262.812 97.5494 262.275 97.334 261.912 96.9032C261.557 96.4725 261.379 95.8813 261.379 95.1298V90.153C261.379 89.4015 261.557 88.8103 261.912 88.3795C262.275 87.9488 262.812 87.7334 263.522 87.7334Z" fill="#8DF1FF"/>
<path d="M267.654 95.1848C267.654 96.1105 268.027 96.5733 268.773 96.5733C269.146 96.5733 269.424 96.4542 269.606 96.2159C269.788 95.9776 269.879 95.6339 269.879 95.1848V87.8296H270.875V95.1298C270.875 95.8905 270.697 96.4862 270.342 96.917C269.988 97.3478 269.451 97.5631 268.732 97.5631C268.023 97.5631 267.491 97.3478 267.136 96.917C266.781 96.4771 266.604 95.8813 266.604 95.1298V87.8296H267.654V95.1848Z" fill="#8DF1FF"/>
<path d="M271.908 97.4532V87.8296H273.259L275.469 94.7861V87.8296H276.41V97.4532H275.305L272.863 89.6719V97.4532H271.908Z" fill="#8DF1FF"/>
<path d="M278.569 97.4532H277.504V87.8296H278.569V92.1602H280.916V87.8296H281.98V97.4532H280.916V93.1226H278.569V97.4532Z" fill="#8DF1FF"/>
<path d="M283.784 97.4532H282.801L284.63 87.8296H286.172L288 97.4532H286.936L286.567 95.5147H284.152L283.784 97.4532ZM286.417 94.5936L285.339 89.0394L284.289 94.5936H286.417Z" fill="#8DF1FF"/>
</svg>
