<svg width="303" height="124" viewBox="0 0 303 124" fill="none" xmlns="http://www.w3.org/2000/svg">
<path d="M23.81 21.34V20.34H22.81V21.34H23.81ZM23.81 46.87H22.81V47.87H23.81V46.87ZM68.522 46.87H69.522V45.87H68.522V46.87ZM68.522 64.81V65.81H69.522V64.81H68.522ZM23.81 64.81V63.81H22.81V64.81H23.81ZM23.81 100V101H24.81V100H23.81ZM1.454 100H0.454V101H1.454V100ZM1.454 3.39999V2.39999H0.454V3.39999H1.454ZM74.456 3.39999H75.456V2.39999H74.456V3.39999ZM74.456 21.34V22.34H75.456V21.34H74.456ZM22.81 21.34V46.87H24.81V21.34H22.81ZM23.81 47.87H68.522V45.87H23.81V47.87ZM67.522 46.87V64.81H69.522V46.87H67.522ZM68.522 63.81H23.81V65.81H68.522V63.81ZM22.81 64.81V100H24.81V64.81H22.81ZM23.81 99H1.454V101H23.81V99ZM2.454 100V3.39999H0.454V100H2.454ZM1.454 4.39999H74.456V2.39999H1.454V4.39999ZM73.456 3.39999V21.34H75.456V3.39999H73.456ZM74.456 20.34H23.81V22.34H74.456V20.34ZM152.616 79.3L153.54 78.918L153.284 78.3H152.616V79.3ZM107.766 79.3V78.3H107.097L106.842 78.918L107.766 79.3ZM99.2097 100V101H99.8785L100.134 100.382L99.2097 100ZM76.3018 100L75.3884 99.5929L74.7612 101H76.3018V100ZM119.358 3.39999V2.39999H118.709L118.444 2.99289L119.358 3.39999ZM141.438 3.39999L142.351 2.9918L142.086 2.39999H141.438V3.39999ZM184.632 100V101H186.174L185.545 99.5918L184.632 100ZM161.172 100L160.248 100.382L160.503 101H161.172V100ZM145.578 62.326V63.326H147.074L146.502 61.9433L145.578 62.326ZM130.26 25.342L131.184 24.9593L130.26 22.7287L129.336 24.9593L130.26 25.342ZM114.942 62.326L114.018 61.9433L113.445 63.326H114.942V62.326ZM152.616 78.3H107.766V80.3H152.616V78.3ZM106.842 78.918L98.2856 99.618L100.134 100.382L108.69 79.682L106.842 78.918ZM99.2097 99H76.3018V101H99.2097V99ZM77.2151 100.407L120.271 3.8071L118.444 2.99289L75.3884 99.5929L77.2151 100.407ZM119.358 4.39999H141.438V2.39999H119.358V4.39999ZM140.525 3.80819L183.719 100.408L185.545 99.5918L142.351 2.9918L140.525 3.80819ZM184.632 99H161.172V101H184.632V99ZM162.096 99.618L153.54 78.918L151.692 79.682L160.248 100.382L162.096 99.618ZM146.502 61.9433L131.184 24.9593L129.336 25.7247L144.654 62.7087L146.502 61.9433ZM129.336 24.9593L114.018 61.9433L115.866 62.7087L131.184 25.7247L129.336 24.9593ZM114.942 63.326H145.578V61.326H114.942V63.326ZM301.222 110.35L302 110.979L302.518 110.339L301.989 109.708L301.222 110.35ZM289.768 119.182L289.359 118.27L289.352 118.273L289.768 119.182ZM255.682 117.526L256.157 116.646L256.146 116.64L255.682 117.526ZM235.81 101.242L236.534 100.552L236.289 100.294L235.936 100.25L235.81 101.242ZM212.35 92.824L211.798 93.6578L211.803 93.6612L212.35 92.824ZM196.342 75.436L195.457 75.9013L195.461 75.9081L195.464 75.9148L196.342 75.436ZM197.446 26.17L196.59 25.654L196.588 25.657L197.446 26.17ZM216.352 8.23L215.881 7.34791L215.877 7.35018L216.352 8.23ZM289.492 26.17L288.636 26.686L288.639 26.6906L289.492 26.17ZM286.87 81.232L286.07 80.632L286.066 80.6376L286.87 81.232ZM261.892 98.896L261.589 97.9432L260.058 98.4309L261.172 99.5891L261.892 98.896ZM268.516 104.002L268.964 103.108L268.956 103.104L268.948 103.1L268.516 104.002ZM291.286 98.482L292.053 97.8401L291.331 96.977L290.559 97.7962L291.286 98.482ZM217.18 67.708L216.304 68.1893L216.307 68.1958L216.311 68.2023L217.18 67.708ZM228.082 78.748L227.581 79.613L227.587 79.6168L227.594 79.6205L228.082 78.748ZM258.994 78.748L259.483 79.6205L259.49 79.6168L259.496 79.613L258.994 78.748ZM269.758 67.708L268.889 67.2137L268.885 67.2202L268.882 67.2267L269.758 67.708ZM269.758 35.692L268.882 36.1733L268.885 36.1798L268.889 36.1863L269.758 35.692ZM258.994 24.79L258.493 25.655L258.499 25.6588L258.506 25.6625L258.994 24.79ZM228.082 24.79L228.571 25.6625L228.578 25.6588L228.584 25.655L228.082 24.79ZM217.18 35.692L216.311 35.1977L216.307 35.2042L216.304 35.2107L217.18 35.692ZM300.445 109.721C297.415 113.464 293.723 116.31 289.359 118.27L290.178 120.094C294.83 118.006 298.774 114.964 302 110.979L300.445 109.721ZM289.352 118.273C285.079 120.231 280.347 121.218 275.14 121.218V123.218C280.606 123.218 285.626 122.181 290.185 120.091L289.352 118.273ZM275.14 121.218C268.115 121.218 261.795 119.688 256.157 116.646L255.207 118.406C261.162 121.62 267.814 123.218 275.14 123.218V121.218ZM256.146 116.64C250.49 113.677 243.953 108.338 236.534 100.552L235.086 101.932C242.571 109.786 249.283 115.303 255.218 118.412L256.146 116.64ZM235.936 100.25C227.336 99.1636 219.662 96.4062 212.897 91.9868L211.803 93.6612C218.839 98.2578 226.805 101.112 235.685 102.234L235.936 100.25ZM212.902 91.9902C206.229 87.5711 201.005 81.8963 197.22 74.9571L195.464 75.9148C199.407 83.1437 204.856 89.0609 211.798 93.6578L212.902 91.9902ZM197.228 74.9707C193.536 67.9477 191.684 60.197 191.684 51.7H189.684C189.684 60.499 191.605 68.5723 195.457 75.9013L197.228 74.9707ZM191.684 51.7C191.684 42.39 193.897 34.0598 198.305 26.683L196.588 25.657C191.98 33.3682 189.684 42.058 189.684 51.7H191.684ZM198.303 26.686C202.809 19.2065 208.978 13.3507 216.828 9.10982L215.877 7.35018C207.719 11.7573 201.284 17.8615 196.59 25.654L198.303 26.686ZM216.823 9.11207C224.761 4.87251 233.659 2.744 243.538 2.744V0.743999C233.362 0.743999 224.135 2.93949 215.881 7.34792L216.823 9.11207ZM243.538 2.744C253.418 2.744 262.268 4.87254 270.111 9.10982L271.062 7.35018C262.897 2.93945 253.715 0.743999 243.538 0.743999V2.744ZM270.111 9.10982C277.961 13.3507 284.13 19.2065 288.636 26.686L290.349 25.654C285.655 17.8615 279.22 11.7573 271.062 7.35018L270.111 9.10982ZM288.639 26.6906C293.136 34.0664 295.392 42.3938 295.392 51.7H297.392C297.392 42.0542 295.049 33.3616 290.346 25.6494L288.639 26.6906ZM295.392 51.7C295.392 62.7217 292.28 72.352 286.07 80.632L287.67 81.832C294.156 73.184 297.392 63.1263 297.392 51.7H295.392ZM286.066 80.6376C279.94 88.9259 271.792 94.6925 261.589 97.9432L262.196 99.8488C272.784 96.4755 281.289 90.466 287.675 81.8264L286.066 80.6376ZM261.172 99.5891C263.523 102.035 265.826 103.824 268.085 104.904L268.948 103.1C266.975 102.156 264.862 100.541 262.613 98.2029L261.172 99.5891ZM268.069 104.896C270.417 106.07 272.916 106.658 275.554 106.658V104.658C273.225 104.658 271.032 104.142 268.964 103.108L268.069 104.896ZM275.554 106.658C281.839 106.658 287.338 104.13 292.014 99.1678L290.559 97.7962C286.219 102.402 281.23 104.658 275.554 104.658V106.658ZM290.52 99.1239L300.456 110.992L301.989 109.708L292.053 97.8401L290.52 99.1239ZM212.316 51.7C212.316 57.8282 213.638 63.3331 216.304 68.1893L218.057 67.2267C215.571 62.6989 214.316 57.5318 214.316 51.7H212.316ZM216.311 68.2023C219.065 73.0458 222.825 76.8548 227.581 79.613L228.584 77.883C224.14 75.3052 220.631 71.7542 218.05 67.2137L216.311 68.2023ZM227.594 79.6205C232.355 82.2869 237.678 83.612 243.538 83.612V81.612C237.991 81.612 233.01 80.3611 228.571 77.8755L227.594 79.6205ZM243.538 83.612C249.399 83.612 254.722 82.2869 259.483 79.6205L258.506 77.8755C254.067 80.3611 249.086 81.612 243.538 81.612V83.612ZM259.496 79.613C264.255 76.853 267.972 73.0398 270.635 68.1893L268.882 67.2267C266.393 71.7602 262.934 75.307 258.493 77.883L259.496 79.613ZM270.628 68.2023C273.39 63.3438 274.76 57.8342 274.76 51.7H272.76C272.76 57.5258 271.462 62.6882 268.889 67.2137L270.628 68.2023ZM274.76 51.7C274.76 45.5658 273.39 40.0562 270.628 35.1977L268.889 36.1863C271.462 40.7118 272.76 45.8742 272.76 51.7H274.76ZM270.635 35.2107C267.97 30.3572 264.249 26.5865 259.483 23.9175L258.506 25.6625C262.94 28.1455 266.394 31.6428 268.882 36.1733L270.635 35.2107ZM259.496 23.925C254.733 21.1621 249.405 19.788 243.538 19.788V21.788C249.079 21.788 254.056 23.0819 258.493 25.655L259.496 23.925ZM243.538 19.788C237.671 19.788 232.344 21.1621 227.581 23.925L228.584 25.655C233.021 23.0819 237.997 21.788 243.538 21.788V19.788ZM227.594 23.9175C222.831 26.5847 219.067 30.3513 216.311 35.1977L218.05 36.1863C220.63 31.6487 224.134 28.1473 228.571 25.6625L227.594 23.9175ZM216.304 35.2107C213.638 40.0669 212.316 45.5718 212.316 51.7H214.316C214.316 45.8682 215.571 40.7011 218.057 36.1733L216.304 35.2107Z" fill="white" fill-opacity="0.07"/>
</svg>
