<svg width="43" height="49" viewBox="0 0 43 49" fill="none" xmlns="http://www.w3.org/2000/svg">
<path d="M42.1719 44.4062H38.3438V42.8749C38.3438 42.6719 38.2631 42.4771 38.1195 42.3336C37.9759 42.19 37.7812 42.1093 37.5781 42.1093H36.8125V29.8593H37.5781C37.7812 29.8593 37.9759 29.7787 38.1195 29.6351C38.2631 29.4915 38.3438 29.2968 38.3438 29.0937V27.5624H39.1094C39.3124 27.5624 39.5072 27.4818 39.6508 27.3382C39.7943 27.1946 39.875 26.9999 39.875 26.7968V24.4999C39.8751 24.3507 39.8315 24.2048 39.7497 24.08C39.668 23.9552 39.5515 23.857 39.4147 23.7975L27.8442 18.7673C28.4304 17.3842 28.5487 15.8474 28.181 14.3908L40.2377 9.90522C40.384 9.85059 40.5102 9.75258 40.5993 9.62431C40.6884 9.49605 40.7362 9.34363 40.7363 9.18745V5.22725C41.2472 5.04664 41.6777 4.69126 41.9519 4.22392C42.226 3.75657 42.3261 3.20735 42.2345 2.67333C42.1429 2.13931 41.8654 1.65487 41.4512 1.30564C41.0369 0.956406 40.5125 0.764862 39.9707 0.764862C39.4289 0.764862 38.9045 0.956406 38.4902 1.30564C38.076 1.65487 37.7985 2.13931 37.7069 2.67333C37.6153 3.20735 37.7154 3.75657 37.9895 4.22392C38.2637 4.69126 38.6942 5.04664 39.2051 5.22725V8.65534L27.6413 12.9581C27.1232 11.9409 26.361 11.0681 25.4229 10.4177C24.4847 9.76731 23.3999 9.35974 22.2656 9.23147V5.22725C22.7765 5.04664 23.207 4.69126 23.4812 4.22392C23.7553 3.75657 23.8554 3.20735 23.7638 2.67333C23.6722 2.13931 23.3947 1.65487 22.9805 1.30564C22.5662 0.956406 22.0418 0.764862 21.5 0.764862C20.9582 0.764862 20.4338 0.956406 20.0195 1.30564C19.6053 1.65487 19.3278 2.13931 19.2362 2.67333C19.1446 3.20735 19.2447 3.75657 19.5188 4.22392C19.793 4.69126 20.2235 5.04664 20.7344 5.22725V9.23147C19.6002 9.35964 18.5155 9.76718 17.5775 10.4176C16.6394 11.068 15.8774 11.9409 15.3597 12.9581L3.89062 8.65725V5.22725C4.40146 5.04664 4.832 4.69126 5.10616 4.22392C5.38031 3.75657 5.48042 3.20735 5.3888 2.67333C5.29717 2.13931 5.01971 1.65487 4.60546 1.30564C4.1912 0.956406 3.66682 0.764862 3.125 0.764862C2.58318 0.764862 2.0588 0.956406 1.64454 1.30564C1.23029 1.65487 0.952827 2.13931 0.861203 2.67333C0.76958 3.20735 0.869692 3.75657 1.14384 4.22392C1.418 4.69126 1.84854 5.04664 2.35938 5.22725V9.18745C2.35945 9.34326 2.40703 9.49535 2.49578 9.62343C2.58452 9.7515 2.71021 9.84947 2.85607 9.90426L14.819 14.3908C14.4513 15.8474 14.5696 17.3842 15.1558 18.7673L3.58533 23.7975C3.4485 23.857 3.33203 23.9552 3.25025 24.08C3.16847 24.2048 3.12493 24.3507 3.125 24.4999V26.7968C3.125 26.9999 3.20566 27.1946 3.34925 27.3382C3.49283 27.4818 3.68757 27.5624 3.89062 27.5624H4.65625V29.0937C4.65625 29.2968 4.73691 29.4915 4.8805 29.6351C5.02408 29.7787 5.21882 29.8593 5.42188 29.8593H6.1875V42.1093H5.42188C5.21882 42.1093 5.02408 42.19 4.8805 42.3336C4.73691 42.4771 4.65625 42.6719 4.65625 42.8749V44.4062H0.828125C0.625069 44.4062 0.430329 44.4869 0.286747 44.6304C0.143164 44.774 0.0625 44.9688 0.0625 45.1718V47.4687C0.0625 47.6718 0.143164 47.8665 0.286747 48.0101C0.430329 48.1537 0.625069 48.2343 0.828125 48.2343H42.1719C42.3749 48.2343 42.5697 48.1537 42.7133 48.0101C42.8568 47.8665 42.9375 47.6718 42.9375 47.4687V45.1718C42.9375 44.9688 42.8568 44.774 42.7133 44.6304C42.5697 44.4869 42.3749 44.4062 42.1719 44.4062ZM39.9707 2.29682C40.1221 2.29682 40.2702 2.34173 40.3961 2.42585C40.522 2.50998 40.6201 2.62956 40.678 2.76945C40.736 2.90935 40.7512 3.0633 40.7216 3.21181C40.6921 3.36033 40.6192 3.49675 40.5121 3.60383C40.405 3.7109 40.2686 3.78382 40.1201 3.81336C39.9716 3.8429 39.8176 3.82774 39.6777 3.76979C39.5378 3.71184 39.4182 3.61371 39.3341 3.48781C39.25 3.3619 39.2051 3.21387 39.2051 3.06245C39.2054 2.85948 39.2861 2.6649 39.4296 2.52138C39.5732 2.37785 39.7677 2.2971 39.9707 2.29682ZM3.125 3.82807C2.97357 3.82807 2.82555 3.78317 2.69964 3.69904C2.57374 3.61491 2.4756 3.49534 2.41765 3.35544C2.35971 3.21554 2.34454 3.0616 2.37409 2.91308C2.40363 2.76456 2.47655 2.62814 2.58362 2.52107C2.6907 2.41399 2.82712 2.34107 2.97563 2.31153C3.12415 2.28199 3.27809 2.29715 3.41799 2.3551C3.55789 2.41305 3.67747 2.51118 3.76159 2.63709C3.84572 2.763 3.89062 2.91102 3.89062 3.06245C3.89035 3.26542 3.80959 3.46 3.66607 3.60352C3.52255 3.74704 3.32797 3.82779 3.125 3.82807ZM36.8125 28.3281H32.2188V27.5624H36.8125V28.3281ZM24.5625 42.1093H23.7969V29.8593H24.5625C24.7656 29.8593 24.9603 29.7787 25.1039 29.6351C25.2475 29.4915 25.3281 29.2968 25.3281 29.0937V27.5624H30.6875V29.0937C30.6875 29.2968 30.7682 29.4915 30.9117 29.6351C31.0553 29.7787 31.2501 29.8593 31.4531 29.8593H32.2188V42.1093H31.4531C31.2501 42.1093 31.0553 42.19 30.9117 42.3336C30.7682 42.4771 30.6875 42.6719 30.6875 42.8749V44.4062H25.3281V42.8749C25.3281 42.6719 25.2475 42.4771 25.1039 42.3336C24.9603 42.19 24.7656 42.1093 24.5625 42.1093ZM11.5469 42.1093H10.7812V29.8593H11.5469C11.7499 29.8593 11.9447 29.7787 12.0883 29.6351C12.2318 29.4915 12.3125 29.2968 12.3125 29.0937V27.5624H17.6719V29.0937C17.6719 29.2968 17.7525 29.4915 17.8961 29.6351C18.0397 29.7787 18.2344 29.8593 18.4375 29.8593H19.2031V42.1093H18.4375C18.2344 42.1093 18.0397 42.19 17.8961 42.3336C17.7525 42.4771 17.6719 42.6719 17.6719 42.8749V44.4062H12.3125V42.8749C12.3125 42.6719 12.2318 42.4771 12.0883 42.3336C11.9447 42.19 11.7499 42.1093 11.5469 42.1093ZM6.1875 28.3281V27.5624H10.7812V28.3281H6.1875ZM9.25 29.8593V42.1093H7.71875V29.8593H9.25ZM19.2031 43.6406H23.7969V44.4062H19.2031V43.6406ZM20.7344 42.1093V29.8593H22.2656V42.1093H20.7344ZM19.2031 28.3281V27.5624H23.7969V28.3281H19.2031ZM32.2188 43.6406H36.8125V44.4062H32.2188V43.6406ZM33.75 42.1093V29.8593H35.2812V42.1093H33.75ZM21.5 2.29682C21.6514 2.29682 21.7995 2.34173 21.9254 2.42585C22.0513 2.50998 22.1494 2.62956 22.2073 2.76945C22.2653 2.90935 22.2805 3.0633 22.2509 3.21181C22.2214 3.36033 22.1485 3.49675 22.0414 3.60383C21.9343 3.7109 21.7979 3.78382 21.6494 3.81336C21.5009 3.8429 21.3469 3.82774 21.207 3.76979C21.0671 3.71184 20.9475 3.61371 20.8634 3.48781C20.7793 3.3619 20.7344 3.21387 20.7344 3.06245C20.7347 2.85948 20.8154 2.6649 20.9589 2.52138C21.1025 2.37785 21.297 2.2971 21.5 2.29682ZM21.5 10.7187C22.56 10.7187 23.5962 11.033 24.4775 11.6219C25.3589 12.2108 26.0458 13.0478 26.4514 14.0271C26.8571 15.0064 26.9632 16.084 26.7564 17.1236C26.5496 18.1633 26.0392 19.1182 25.2897 19.8677C24.5401 20.6172 23.5852 21.1277 22.5456 21.3345C21.5059 21.5413 20.4284 21.4351 19.4491 21.0295C18.4698 20.6238 17.6327 19.9369 17.0438 19.0556C16.4549 18.1742 16.1406 17.1381 16.1406 16.0781C16.1422 14.6572 16.7073 13.2949 17.7121 12.2902C18.7168 11.2854 20.0791 10.7203 21.5 10.7187ZM4.65625 26.0312V25.0024L15.9148 20.1062C16.552 20.9921 17.3908 21.7137 18.362 22.2114C19.3331 22.7091 20.4087 22.9687 21.5 22.9687C22.5913 22.9687 23.6669 22.7091 24.638 22.2114C25.6092 21.7137 26.448 20.9921 27.0852 20.1062L38.3438 25.0024V26.0312H4.65625ZM6.1875 43.6406H10.7812V44.4062H6.1875V43.6406ZM41.4062 46.7031H1.59375V45.9374H41.4062V46.7031Z" fill="#91CEDB"/>
<path d="M19.9688 17.6094C19.7657 17.6094 19.571 17.69 19.4274 17.8336C19.2838 17.9772 19.2031 18.1719 19.2031 18.375C19.2031 18.5781 19.2838 18.7728 19.4274 18.9164C19.571 19.06 19.7657 19.1406 19.9688 19.1406H20.7344C20.7344 19.3437 20.815 19.5384 20.9586 19.682C21.1022 19.8256 21.2969 19.9062 21.5 19.9062C21.7031 19.9062 21.8978 19.8256 22.0414 19.682C22.185 19.5384 22.2656 19.3437 22.2656 19.1406H23.0312C23.2343 19.1406 23.429 19.06 23.5726 18.9164C23.7162 18.7728 23.7969 18.5781 23.7969 18.375V16.0781C23.7969 15.8751 23.7162 15.6803 23.5726 15.5367C23.429 15.3932 23.2343 15.3125 23.0312 15.3125H20.7344V14.5469H23.0312C23.2343 14.5469 23.429 14.4662 23.5726 14.3226C23.7162 14.179 23.7969 13.9843 23.7969 13.7812C23.7969 13.5782 23.7162 13.3835 23.5726 13.2399C23.429 13.0963 23.2343 13.0156 23.0312 13.0156H22.2656C22.2656 12.8126 22.185 12.6178 22.0414 12.4742C21.8978 12.3307 21.7031 12.25 21.5 12.25C21.2969 12.25 21.1022 12.3307 20.9586 12.4742C20.815 12.6178 20.7344 12.8126 20.7344 13.0156H19.9688C19.7657 13.0156 19.571 13.0963 19.4274 13.2399C19.2838 13.3835 19.2031 13.5782 19.2031 13.7812V16.0781C19.2031 16.2812 19.2838 16.4759 19.4274 16.6195C19.571 16.7631 19.7657 16.8438 19.9688 16.8438H22.2656V17.6094H19.9688Z" fill="#91CEDB"/>
</svg>
