<svg width="285" height="221" viewBox="0 0 285 221" fill="none" xmlns="http://www.w3.org/2000/svg">
<path d="M0.582581 147.013H285V185.448H0.582581V147.013Z" fill="#BEDDE4"/>
<path d="M227.348 185.448L215.337 181.605L247.046 155.181L268.185 166.231L227.348 185.448Z" fill="#C4C4C4"/>
<path d="M65.9654 186.409L78.413 182.382L45.5513 154.7L23.6435 166.276L65.9654 186.409Z" fill="#C4C4C4"/>
<path d="M257.135 110.5C257.135 171.527 207.662 221 146.635 221C85.6073 221 36.1348 171.527 36.1348 110.5C36.1348 49.4725 85.6073 0 146.635 0C207.662 0 257.135 49.4725 257.135 110.5Z" fill="#61BBD1"/>
<path fill-rule="evenodd" clip-rule="evenodd" d="M146.635 208.509C200.763 208.509 244.643 164.629 244.643 110.5C244.643 56.3714 200.763 12.4914 146.635 12.4914C92.5061 12.4914 48.6261 56.3714 48.6261 110.5C48.6261 164.629 92.5061 208.509 146.635 208.509ZM146.635 212.352C202.886 212.352 248.487 166.752 248.487 110.5C248.487 54.2487 202.886 8.64795 146.635 8.64795C90.3834 8.64795 44.7826 54.2487 44.7826 110.5C44.7826 166.752 90.3834 212.352 146.635 212.352Z" fill="white"/>
<path d="M96.2289 47.3804V43.143H115.418V47.2593L104.522 85.5173H99.8005L110.636 47.3804H96.2289Z" fill="white"/>
<path d="M129.869 43.143C133.098 43.143 135.499 44.0712 137.073 45.9276C138.687 47.7436 139.494 50.3264 139.494 53.676V75.0448C139.494 78.354 138.687 80.9369 137.073 82.7933C135.499 84.6093 133.098 85.5173 129.869 85.5173H119.942V43.143H129.869ZM129.809 81.2194C133.158 81.2194 134.833 79.2217 134.833 75.2264V53.4339C134.833 49.4386 133.138 47.441 129.748 47.441H124.663V81.2194H129.809Z" fill="white"/>
<path d="M148.664 85.5173H143.943V43.143H148.664V85.5173Z" fill="white"/>
<path d="M156.667 85.5173H152.309L160.42 43.143H167.261L175.372 85.5173H170.651L169.016 76.9819H158.302L156.667 85.5173ZM168.35 72.9261L163.568 48.47L158.907 72.9261H168.35Z" fill="white"/>
<path d="M187.956 42.7192C191.064 42.7192 193.404 43.6676 194.978 45.5644C196.592 47.4208 197.4 50.0036 197.4 53.3128V54.463H192.92V53.0707C192.92 49.035 191.306 47.0172 188.077 47.0172C184.849 47.0172 183.234 49.0149 183.234 53.0102C183.234 55.028 183.779 56.7431 184.869 58.1556C185.958 59.5277 187.593 61.0613 189.772 62.7563C191.507 64.2091 192.859 65.44 193.828 66.4489C194.837 67.4578 195.684 68.7088 196.37 70.202C197.097 71.6952 197.46 73.4104 197.46 75.3475C197.46 78.6567 196.653 81.2597 195.039 83.1565C193.424 85.0129 191.043 85.9411 187.896 85.9411C184.748 85.9411 182.367 85.0129 180.752 83.1565C179.179 81.2597 178.392 78.6567 178.392 75.3475V72.9261H182.811V75.5896C182.811 77.5267 183.214 79.0199 184.021 80.0692C184.869 81.1185 186.12 81.6431 187.775 81.6431C189.429 81.6431 190.66 81.1185 191.467 80.0692C192.315 79.0199 192.738 77.5267 192.738 75.5896C192.738 73.6122 192.194 71.9374 191.104 70.5652C190.055 69.1931 188.44 67.6394 186.261 65.9041C184.607 64.5319 183.255 63.3414 182.205 62.3325C181.196 61.2832 180.329 60.012 179.602 58.5188C178.916 56.9853 178.573 55.2499 178.573 53.3128C178.573 49.9632 179.36 47.3602 180.934 45.5038C182.508 43.6474 184.849 42.7192 187.956 42.7192Z" fill="white"/>
<path d="M131.934 180.051C131.117 180.552 130.216 180.831 129.232 180.887V179.103C130.198 179.066 130.922 178.825 131.405 178.379C131.888 177.933 132.278 177.311 132.575 176.512H134.08V196.018H131.934V180.051Z" fill="#101F38"/>
<path d="M137.198 181.221C137.198 179.698 137.569 178.5 138.313 177.627C139.074 176.753 140.189 176.317 141.656 176.317C143.124 176.317 144.239 176.753 145 177.627C145.762 178.5 146.143 179.698 146.143 181.221V191.281C146.143 192.804 145.762 194.011 145 194.903C144.239 195.776 143.124 196.213 141.656 196.213C140.207 196.213 139.102 195.776 138.34 194.903C137.579 194.011 137.198 192.804 137.198 191.281V181.221ZM139.344 191.42C139.344 192.312 139.539 193.008 139.929 193.51C140.319 193.993 140.895 194.234 141.656 194.234C142.437 194.234 143.012 193.993 143.384 193.51C143.774 193.008 143.969 192.312 143.969 191.42V181.11C143.969 180.199 143.774 179.503 143.384 179.02C143.012 178.518 142.437 178.267 141.656 178.267C140.895 178.267 140.319 178.518 139.929 179.02C139.539 179.503 139.344 180.199 139.344 181.11V191.42Z" fill="#101F38"/>
<path d="M148.028 181.221C148.028 179.698 148.4 178.5 149.143 177.627C149.905 176.753 151.019 176.317 152.487 176.317C153.954 176.317 155.069 176.753 155.831 177.627C156.592 178.5 156.973 179.698 156.973 181.221V191.281C156.973 192.804 156.592 194.011 155.831 194.903C155.069 195.776 153.954 196.213 152.487 196.213C151.038 196.213 149.932 195.776 149.171 194.903C148.409 194.011 148.028 192.804 148.028 191.281V181.221ZM150.174 191.42C150.174 192.312 150.369 193.008 150.759 193.51C151.149 193.993 151.725 194.234 152.487 194.234C153.267 194.234 153.843 193.993 154.214 193.51C154.605 193.008 154.8 192.312 154.8 191.42V181.11C154.8 180.199 154.605 179.503 154.214 179.02C153.843 178.518 153.267 178.267 152.487 178.267C151.725 178.267 151.149 178.518 150.759 179.02C150.369 179.503 150.174 180.199 150.174 181.11V191.42Z" fill="#101F38"/>
<path d="M161.701 176.4C162.611 176.4 163.299 176.688 163.763 177.264C164.246 177.822 164.488 178.583 164.488 179.549V185.707C164.488 186.692 164.255 187.463 163.791 188.02C163.327 188.578 162.63 188.856 161.701 188.856C160.772 188.856 160.076 188.578 159.611 188.02C159.147 187.463 158.915 186.692 158.915 185.707V179.549C158.915 178.583 159.147 177.822 159.611 177.264C160.094 176.688 160.791 176.4 161.701 176.4ZM163.234 196.018H161.924L169.615 176.512H170.924L163.234 196.018ZM161.701 177.682C160.772 177.682 160.308 178.277 160.308 179.466V185.819C160.308 186.989 160.772 187.574 161.701 187.574C162.165 187.574 162.509 187.426 162.732 187.129C162.974 186.813 163.094 186.376 163.094 185.819V179.466C163.094 178.908 162.974 178.472 162.732 178.156C162.509 177.84 162.165 177.682 161.701 177.682ZM171.287 183.701C172.216 183.701 172.912 183.98 173.377 184.537C173.841 185.094 174.073 185.856 174.073 186.822V192.952C174.073 193.937 173.841 194.708 173.377 195.265C172.912 195.823 172.216 196.101 171.287 196.101C170.358 196.101 169.661 195.823 169.197 195.265C168.732 194.708 168.5 193.937 168.5 192.952V186.822C168.5 185.856 168.732 185.094 169.197 184.537C169.661 183.98 170.358 183.701 171.287 183.701ZM171.287 184.983C170.822 184.983 170.469 185.141 170.228 185.457C170.005 185.754 169.893 186.181 169.893 186.738V193.064C169.893 193.621 170.005 194.058 170.228 194.374C170.469 194.689 170.822 194.847 171.287 194.847C171.751 194.847 172.095 194.689 172.318 194.374C172.559 194.058 172.68 193.621 172.68 193.064V186.738C172.68 186.181 172.559 185.754 172.318 185.457C172.095 185.141 171.751 184.983 171.287 184.983Z" fill="#101F38"/>
<path d="M72.5111 100.295C72.5111 99.2448 72.7673 98.4184 73.2798 97.8163C73.8051 97.2142 74.5738 96.9131 75.5859 96.9131C76.598 96.9131 77.3667 97.2142 77.892 97.8163C78.4173 98.4184 78.6799 99.2448 78.6799 100.295V107.252C78.6799 108.303 78.4173 109.129 77.892 109.731C77.3667 110.333 76.598 110.634 75.5859 110.634C74.5866 110.634 73.8243 110.333 73.299 109.731C72.7737 109.129 72.5111 108.303 72.5111 107.252V100.295ZM73.9908 107.329C73.9908 107.957 74.1254 108.437 74.3944 108.77C74.6635 109.103 75.0606 109.27 75.5859 109.27C76.6493 109.27 77.1809 108.623 77.1809 107.329V100.218C77.1809 99.6035 77.0464 99.1295 76.7774 98.7964C76.5211 98.4505 76.124 98.2775 75.5859 98.2775C75.0606 98.2775 74.6635 98.4505 74.3944 98.7964C74.1254 99.1295 73.9908 99.6035 73.9908 100.218V107.329Z" fill="#101F38"/>
<path d="M81.5178 107.329C81.5178 108.623 82.043 109.27 83.0936 109.27C83.6189 109.27 84.0096 109.103 84.2658 108.77C84.5221 108.437 84.6502 107.957 84.6502 107.329V97.0476H86.0531V107.252C86.0531 108.315 85.8032 109.148 85.3036 109.75C84.8039 110.352 84.048 110.654 83.0359 110.654C82.0366 110.654 81.2872 110.352 80.7875 109.75C80.2878 109.135 80.038 108.303 80.038 107.252V97.0476H81.5178V107.329Z" fill="#101F38"/>
<path d="M93.3363 96.9131C94.3228 96.9131 95.0659 97.2142 95.5655 97.8163C96.078 98.4056 96.3342 99.2256 96.3342 100.276V100.641H94.9121V100.199C94.9121 98.9181 94.3997 98.2775 93.3747 98.2775C92.3498 98.2775 91.8373 98.9117 91.8373 100.18C91.8373 100.821 92.0103 101.365 92.3562 101.814C92.7021 102.249 93.221 102.736 93.9128 103.274C94.4637 103.735 94.8929 104.126 95.2004 104.446C95.5207 104.767 95.7897 105.164 96.0075 105.638C96.2381 106.112 96.3534 106.656 96.3534 107.271C96.3534 108.322 96.0972 109.148 95.5847 109.75C95.0723 110.34 94.3164 110.634 93.3171 110.634C92.3178 110.634 91.5619 110.34 91.0494 109.75C90.5498 109.148 90.3 108.322 90.3 107.271V106.503H91.7028V107.348C91.7028 107.963 91.8309 108.437 92.0872 108.77C92.3562 109.103 92.7534 109.27 93.2787 109.27C93.8039 109.27 94.1947 109.103 94.4509 108.77C94.72 108.437 94.8545 107.963 94.8545 107.348C94.8545 106.72 94.6815 106.189 94.3356 105.753C94.0025 105.317 93.49 104.824 92.7982 104.273C92.2729 103.838 91.8438 103.46 91.5107 103.14C91.1904 102.806 90.9149 102.403 90.6843 101.929C90.4665 101.442 90.3576 100.891 90.3576 100.276C90.3576 99.2128 90.6074 98.3864 91.1071 97.7971C91.6067 97.2078 92.3498 96.9131 93.3363 96.9131Z" fill="#101F38"/>
<path d="M102.447 104.35H99.1605V109.135H103.196V110.5H97.6616V97.0476H103.196V98.412H99.1605V103.005H102.447V104.35Z" fill="#101F38"/>
<path d="M106.009 107.329C106.009 108.623 106.534 109.27 107.584 109.27C108.11 109.27 108.501 109.103 108.757 108.77C109.013 108.437 109.141 107.957 109.141 107.329V97.0476H110.544V107.252C110.544 108.315 110.294 109.148 109.794 109.75C109.295 110.352 108.539 110.654 107.527 110.654C106.528 110.654 105.778 110.352 105.278 109.75C104.779 109.135 104.529 108.303 104.529 107.252V97.0476H106.009V107.329Z" fill="#101F38"/>
<path d="M118.154 97.0476C119.179 97.0476 119.941 97.3423 120.441 97.9316C120.953 98.5081 121.209 99.3281 121.209 100.391V107.175C121.209 108.226 120.953 109.046 120.441 109.635C119.941 110.212 119.179 110.5 118.154 110.5H115.002V97.0476H118.154ZM118.135 109.135C119.198 109.135 119.73 108.501 119.73 107.233V100.315C119.73 99.0462 119.192 98.412 118.115 98.412H116.501V109.135H118.135Z" fill="#101F38"/>
<path d="M124.121 110.5H122.622V97.0476H124.121V110.5Z" fill="#101F38"/>
<path d="M125.643 110.5V97.0476H127.545L130.658 106.772V97.0476H131.984V110.5H130.428L126.988 99.6227V110.5H125.643Z" fill="#101F38"/>
<path d="M135.024 110.5H133.525V97.0476H135.024V103.101H138.33V97.0476H139.829V110.5H138.33V104.446H135.024V110.5Z" fill="#101F38"/>
<path d="M146.155 104.35H142.869V109.135H146.904V110.5H141.37V97.0476H146.904V98.412H142.869V103.005H146.155V104.35Z" fill="#101F38"/>
<path d="M149.794 110.5H148.295V97.0476H149.794V110.5Z" fill="#101F38"/>
<path d="M154.333 97.0476C155.371 97.0476 156.127 97.3038 156.601 97.8163C157.088 98.3288 157.331 99.0975 157.331 100.122V101.218C157.331 101.961 157.196 102.563 156.927 103.024C156.658 103.485 156.236 103.806 155.659 103.985C156.248 104.164 156.678 104.491 156.947 104.965C157.216 105.426 157.35 106.035 157.35 106.791V108.886C157.35 109.257 157.363 109.571 157.389 109.827C157.427 110.071 157.504 110.295 157.619 110.5H156.101C156.011 110.295 155.947 110.083 155.909 109.866C155.87 109.635 155.851 109.302 155.851 108.866V106.752C155.851 106.022 155.685 105.51 155.352 105.215C155.031 104.908 154.544 104.754 153.891 104.754H152.834V110.5H151.335V97.0476H154.333ZM153.949 103.389C154.589 103.389 155.063 103.255 155.371 102.986C155.691 102.717 155.851 102.236 155.851 101.544V100.257C155.851 99.642 155.73 99.1807 155.486 98.8733C155.243 98.5658 154.846 98.412 154.295 98.412H152.834V103.389H153.949Z" fill="#101F38"/>
<path d="M158.783 100.295C158.783 99.2448 159.039 98.4184 159.552 97.8163C160.077 97.2142 160.846 96.9131 161.858 96.9131C162.87 96.9131 163.639 97.2142 164.164 97.8163C164.689 98.4184 164.952 99.2448 164.952 100.295V107.252C164.952 108.303 164.689 109.129 164.164 109.731C163.639 110.333 162.87 110.634 161.858 110.634C160.858 110.634 160.096 110.333 159.571 109.731C159.046 109.129 158.783 108.303 158.783 107.252V100.295ZM160.263 107.329C160.263 107.957 160.397 108.437 160.666 108.77C160.935 109.103 161.332 109.27 161.858 109.27C162.921 109.27 163.453 108.623 163.453 107.329V100.218C163.453 99.6035 163.318 99.1295 163.049 98.7964C162.793 98.4505 162.396 98.2775 161.858 98.2775C161.332 98.2775 160.935 98.4505 160.666 98.7964C160.397 99.1295 160.263 99.6035 160.263 100.218V107.329Z" fill="#101F38"/>
<path d="M172.503 97.0476C173.528 97.0476 174.29 97.3423 174.79 97.9316C175.302 98.5081 175.559 99.3281 175.559 100.391V107.175C175.559 108.226 175.302 109.046 174.79 109.635C174.29 110.212 173.528 110.5 172.503 110.5H169.351V97.0476H172.503ZM172.484 109.135C173.547 109.135 174.079 108.501 174.079 107.233V100.315C174.079 99.0462 173.541 98.412 172.465 98.412H170.85V109.135H172.484Z" fill="#101F38"/>
<path d="M181.756 104.35H178.47V109.135H182.505V110.5H176.971V97.0476H182.505V98.412H178.47V103.005H181.756V104.35Z" fill="#101F38"/>
<path d="M190.204 108.751L192.376 97.0476H193.76L191.242 110.5H189.032L186.495 97.0476H188.014L190.204 108.751Z" fill="#101F38"/>
<path d="M194.778 100.295C194.778 99.2448 195.034 98.4184 195.547 97.8163C196.072 97.2142 196.841 96.9131 197.853 96.9131C198.865 96.9131 199.634 97.2142 200.159 97.8163C200.684 98.4184 200.947 99.2448 200.947 100.295V107.252C200.947 108.303 200.684 109.129 200.159 109.731C199.634 110.333 198.865 110.634 197.853 110.634C196.853 110.634 196.091 110.333 195.566 109.731C195.041 109.129 194.778 108.303 194.778 107.252V100.295ZM196.258 107.329C196.258 107.957 196.392 108.437 196.661 108.77C196.93 109.103 197.328 109.27 197.853 109.27C198.916 109.27 199.448 108.623 199.448 107.329V100.218C199.448 99.6035 199.313 99.1295 199.044 98.7964C198.788 98.4505 198.391 98.2775 197.853 98.2775C197.328 98.2775 196.93 98.4505 196.661 98.7964C196.392 99.1295 196.258 99.6035 196.258 100.218V107.329Z" fill="#101F38"/>
<path d="M202.363 97.0476H203.862V109.135H207.705V110.5H202.363V97.0476Z" fill="#101F38"/>
<path d="M209.821 98.412H207.342V97.0476H213.78V98.412H211.301V110.5H209.821V98.412Z" fill="#101F38"/>
<path d="M215.072 110.5H213.689L216.264 97.0476H218.436L221.011 110.5H219.512L218.993 107.79H215.591L215.072 110.5ZM218.781 106.503L217.263 98.7387L215.784 106.503H218.781Z" fill="#101F38"/>
<path d="M23.6435 127.796H268.665V166.231H23.6435V127.796Z" fill="white"/>
<path d="M83.1499 147.95H86.7051V154.772C85.7923 155.461 84.7353 155.989 83.5342 156.358C82.3332 156.726 81.1241 156.91 79.907 156.91C78.1614 156.91 76.592 156.542 75.1987 155.805C73.8054 155.053 72.7084 154.02 71.9077 152.706C71.123 151.377 70.7307 149.88 70.7307 148.214C70.7307 146.549 71.123 145.06 71.9077 143.746C72.7084 142.417 73.8134 141.384 75.2227 140.648C76.632 139.895 78.2174 139.519 79.979 139.519C81.4524 139.519 82.7896 139.767 83.9907 140.263C85.1917 140.76 86.2007 141.48 87.0174 142.425L84.5191 144.731C83.318 143.466 81.8687 142.834 80.1712 142.834C79.0982 142.834 78.1454 143.058 77.3126 143.506C76.4799 143.955 75.8313 144.587 75.3668 145.404C74.9024 146.221 74.6702 147.157 74.6702 148.214C74.6702 149.255 74.9024 150.184 75.3668 151.001C75.8313 151.818 76.4718 152.458 77.2886 152.923C78.1213 153.371 79.0662 153.595 80.1232 153.595C81.2442 153.595 82.2531 153.355 83.1499 152.875V147.95Z" fill="#75E2F8"/>
<path d="M104.277 153.019H96.4696L94.9802 156.622H90.9926L98.4874 139.807H102.331L109.85 156.622H105.766L104.277 153.019ZM103.052 150.064L100.385 143.626L97.7187 150.064H103.052Z" fill="#75E2F8"/>
<path d="M125.191 156.622L121.948 151.938H121.755H118.368V156.622H114.477V139.807H121.755C123.245 139.807 124.534 140.055 125.623 140.551C126.728 141.048 127.577 141.753 128.169 142.665C128.762 143.578 129.058 144.659 129.058 145.908C129.058 147.157 128.754 148.238 128.145 149.151C127.553 150.048 126.704 150.737 125.599 151.217L129.37 156.622H125.191ZM125.119 145.908C125.119 144.963 124.814 144.243 124.206 143.746C123.597 143.234 122.708 142.978 121.539 142.978H118.368V148.839H121.539C122.708 148.839 123.597 148.583 124.206 148.07C124.814 147.558 125.119 146.837 125.119 145.908Z" fill="#75E2F8"/>
<path d="M146.098 153.019H138.291L136.802 156.622H132.814L140.309 139.807H144.152L151.671 156.622H147.587L146.098 153.019ZM144.873 150.064L142.206 143.626L139.54 150.064H144.873Z" fill="#75E2F8"/>
<path d="M171.72 139.807V156.622H168.525L160.142 146.413V156.622H156.298V139.807H159.517L167.877 150.016V139.807H171.72Z" fill="#75E2F8"/>
<path d="M182.064 142.978H176.683V139.807H191.337V142.978H185.956V156.622H182.064V142.978Z" fill="#75E2F8"/>
<path d="M196.313 139.807H200.205V156.622H196.313V139.807Z" fill="#75E2F8"/>
<path d="M218.152 153.019H210.345L208.855 156.622H204.868L212.363 139.807H216.206L223.725 156.622H219.641L218.152 153.019ZM216.927 150.064L214.26 143.626L211.594 150.064H216.927Z" fill="#75E2F8"/>
</svg>
