<svg width="171" height="210" viewBox="0 0 171 210" fill="none" xmlns="http://www.w3.org/2000/svg">
<g opacity="0.15">
<path d="M63.515 125.815L64.2004 124.947L63.3332 124.262L46.4511 110.919C37.8944 104.156 36.1993 91.9205 42.3626 83.1716L74.3924 108.487C71.1051 113.121 70.6033 117.797 71.2793 123.122C71.9217 128.608 74.9299 133.24 79.3024 136.977L66.0965 153.686C62.2322 150.256 59.9028 145.597 59.2875 140.79C58.6358 135.672 59.9965 130.267 63.515 125.815Z" fill="white" stroke="white" stroke-width="3"/>
<path d="M117.421 21.7037L117.399 21.7742L117.377 21.8446L110.985 42.7002L105.003 62.2171L85.557 56.257L65.0537 49.9729L45.6777 44.0343C49.3943 33.9202 60.3542 28.3384 70.7116 31.5128L91.2854 37.8185L92.3422 38.1425L92.8071 37.1288L99.4367 15.4981L117.756 21.1128L117.421 21.7037Z" stroke="white" stroke-width="3"/>
<path d="M124.192 188.966L118.534 207.426L98.031 201.142C99.8949 196.318 103.792 192.657 108.612 190.511C113.431 188.366 119.103 187.715 124.192 188.966Z" stroke="white" stroke-width="3"/>
</g>
</svg>
