<svg width="218" height="162" viewBox="0 0 218 162" fill="none" xmlns="http://www.w3.org/2000/svg">
<path d="M58.137 0C60.0271 0 61.4387 0.56226 62.3719 1.68678C63.3289 2.8113 63.8074 4.35452 63.8074 6.31645V8.57745H61.1516V6.17289C61.1516 3.75637 60.1707 2.54811 58.2087 2.54811C57.2278 2.54811 56.4861 2.87111 55.9836 3.51711C55.5051 4.13919 55.2659 5.02445 55.2659 6.17289V19.4518C55.2659 20.6002 55.5051 21.4975 55.9836 22.1435C56.4861 22.7655 57.2278 23.0766 58.2087 23.0766C60.1707 23.0766 61.1516 21.8683 61.1516 19.4518V16.1859H63.8074V19.3082C63.8074 21.2702 63.3289 22.8134 62.3719 23.9379C61.4387 25.0624 60.0271 25.6247 58.137 25.6247C56.2707 25.6247 54.8591 25.0624 53.9021 23.9379C52.969 22.8134 52.5024 21.2702 52.5024 19.3082V6.31645C52.5024 4.35452 52.969 2.8113 53.9021 1.68678C54.8591 0.56226 56.2707 0 58.137 0Z" fill="white"/>
<path d="M69.0071 19.4518C69.0071 21.8683 69.9881 23.0766 71.95 23.0766C72.931 23.0766 73.6607 22.7655 74.1392 22.1435C74.6177 21.5214 74.857 20.6242 74.857 19.4518V0.251221H77.4769V19.3082C77.4769 21.2941 77.0103 22.8493 76.0772 23.9738C75.1441 25.0983 73.7325 25.6606 71.8423 25.6606C69.9761 25.6606 68.5764 25.0983 67.6433 23.9738C66.7102 22.8254 66.2437 21.2702 66.2437 19.3082V0.251221H69.0071V19.4518Z" fill="white"/>
<path d="M85.8289 0.251221C87.7669 0.251221 89.1785 0.729741 90.0638 1.68678C90.973 2.64382 91.4276 4.07937 91.4276 5.99345V8.03912C91.4276 9.42682 91.1764 10.5513 90.6739 11.4127C90.1715 12.274 89.3819 12.8722 88.3052 13.2071C89.4058 13.5421 90.2074 14.1522 90.7098 15.0375C91.2123 15.8988 91.4635 17.0353 91.4635 18.4469V22.3588C91.4635 23.0527 91.4874 23.6388 91.5353 24.1174C91.607 24.572 91.7506 24.9907 91.9659 25.3735H89.1307C88.9632 24.9907 88.8436 24.5959 88.7718 24.1891C88.7 23.7585 88.6641 23.1364 88.6641 22.3229V18.3751C88.6641 17.0113 88.3531 16.0543 87.731 15.504C87.1329 14.9298 86.2237 14.6427 85.0035 14.6427H83.0296V25.3735H80.2302V0.251221H85.8289ZM85.1111 12.0946C86.3074 12.0946 87.1927 11.8433 87.7669 11.3409C88.3651 10.8385 88.6641 9.94123 88.6641 8.64923V6.24467C88.6641 5.09623 88.4368 4.23489 87.9823 3.66067C87.5277 3.08645 86.7859 2.79934 85.7571 2.79934H83.0296V12.0946H85.1111Z" fill="white"/>
<path d="M99.6302 0C101.472 0 102.86 0.56226 103.793 1.68678C104.75 2.78737 105.229 4.31863 105.229 6.28056V6.96245H102.573V6.13701C102.573 3.74441 101.616 2.54811 99.7019 2.54811C97.7879 2.54811 96.8308 3.73245 96.8308 6.10112C96.8308 7.29741 97.1538 8.31427 97.7998 9.15168C98.4458 9.96516 99.4148 10.8743 100.707 11.8792C101.736 12.7406 102.537 13.4703 103.111 14.0685C103.71 14.6666 104.212 15.4083 104.619 16.2936C105.049 17.1788 105.265 18.1957 105.265 19.3441C105.265 21.3061 104.786 22.8493 103.829 23.9738C102.872 25.0744 101.461 25.6247 99.5943 25.6247C97.7281 25.6247 96.3164 25.0744 95.3594 23.9738C94.4263 22.8493 93.9597 21.3061 93.9597 19.3441V17.9086H96.5796V19.4877C96.5796 20.6361 96.8189 21.5214 97.2974 22.1435C97.7998 22.7655 98.5415 23.0766 99.5225 23.0766C100.503 23.0766 101.233 22.7655 101.712 22.1435C102.214 21.5214 102.465 20.6361 102.465 19.4877C102.465 18.3153 102.142 17.3224 101.496 16.5089C100.874 15.6954 99.9173 14.7743 98.6253 13.7455C97.6443 12.932 96.8428 12.2262 96.2207 11.628C95.6226 11.0059 95.1082 10.2523 94.6775 9.36701C94.2708 8.45782 94.0674 7.42901 94.0674 6.28056C94.0674 4.29471 94.5339 2.75148 95.467 1.65089C96.4002 0.550297 97.7879 0 99.6302 0Z" fill="white"/>
<path d="M107.492 6.31645C107.492 4.35452 107.971 2.8113 108.928 1.68678C109.909 0.56226 111.344 0 113.235 0C115.125 0 116.56 0.56226 117.541 1.68678C118.522 2.8113 119.013 4.35452 119.013 6.31645V19.3082C119.013 21.2702 118.522 22.8134 117.541 23.9379C116.56 25.0624 115.125 25.6247 113.235 25.6247C111.368 25.6247 109.945 25.0624 108.964 23.9379C107.983 22.8134 107.492 21.2702 107.492 19.3082V6.31645ZM110.256 19.4518C110.256 20.6242 110.507 21.5214 111.009 22.1435C111.512 22.7655 112.254 23.0766 113.235 23.0766C115.22 23.0766 116.213 21.8683 116.213 19.4518V6.17289C116.213 5.02445 115.962 4.13919 115.46 3.51711C114.981 2.87111 114.239 2.54811 113.235 2.54811C112.254 2.54811 111.512 2.87111 111.009 3.51711C110.507 4.13919 110.256 5.02445 110.256 6.17289V19.4518Z" fill="white"/>
<path d="M54.584 70.8757H52L56.8091 45.7534H60.8646L65.6737 70.8757H62.8743L61.9053 65.8154H55.553L54.584 70.8757ZM61.5106 63.4108L58.6753 48.9117L55.9119 63.4108H61.5106Z" fill="#75E2F8"/>
<path d="M73.2776 45.5022C75.1678 45.5022 76.5794 46.0645 77.5125 47.189C78.4696 48.3135 78.9481 49.8568 78.9481 51.8187V54.0797H76.2923V51.6751C76.2923 49.2586 75.3114 48.0503 73.3494 48.0503C72.3685 48.0503 71.6268 48.3733 71.1243 49.0193C70.6458 49.6414 70.4065 50.5267 70.4065 51.6751V64.954C70.4065 66.1025 70.6458 66.9997 71.1243 67.6457C71.6268 68.2678 72.3685 68.5788 73.3494 68.5788C75.3114 68.5788 76.2923 67.3705 76.2923 64.954V61.6881H78.9481V64.8105C78.9481 66.7724 78.4696 68.3156 77.5125 69.4401C76.5794 70.5647 75.1678 71.1269 73.2776 71.1269C71.4114 71.1269 69.9998 70.5647 69.0428 69.4401C68.1096 68.3156 67.6431 66.7724 67.6431 64.8105V51.8187C67.6431 49.8568 68.1096 48.3135 69.0428 47.189C69.9998 46.0645 71.4114 45.5022 73.2776 45.5022Z" fill="#75E2F8"/>
<path d="M90.4283 59.3912H84.2913V68.3276H91.828V70.8757H81.492V45.7534H91.828V48.3016H84.2913V56.879H90.4283V59.3912Z" fill="#75E2F8"/>
<path d="M94.4246 45.7534H97.224V68.3276H104.402V70.8757H94.4246V45.7534Z" fill="#75E2F8"/>
<path d="M115.452 59.3912H109.315V68.3276H116.852V70.8757H106.516V45.7534H116.852V48.3016H109.315V56.879H115.452V59.3912Z" fill="#75E2F8"/>
<path d="M125.047 45.7534C126.985 45.7534 128.397 46.232 129.282 47.189C130.191 48.146 130.646 49.5816 130.646 51.4957V53.5413C130.646 54.9291 130.395 56.0536 129.892 56.9149C129.39 57.7762 128.6 58.3744 127.524 58.7094C128.624 59.0443 129.426 59.6544 129.928 60.5397C130.431 61.401 130.682 62.5375 130.682 63.9491V67.861C130.682 68.5549 130.706 69.1411 130.754 69.6196C130.826 70.0742 130.969 70.4929 131.184 70.8757H128.349C128.182 70.4929 128.062 70.0981 127.99 69.6914C127.919 69.2607 127.883 68.6386 127.883 67.8251V63.8774C127.883 62.5136 127.572 61.5565 126.95 61.0062C126.351 60.432 125.442 60.1449 124.222 60.1449H122.248V70.8757H119.449V45.7534H125.047ZM124.33 57.5968C125.526 57.5968 126.411 57.3456 126.985 56.8431C127.584 56.3407 127.883 55.4435 127.883 54.1515V51.7469C127.883 50.5985 127.655 49.7371 127.201 49.1629C126.746 48.5887 126.004 48.3016 124.976 48.3016H122.248V57.5968H124.33Z" fill="#75E2F8"/>
<path d="M135.439 70.8757H132.855L137.664 45.7534H141.72L146.529 70.8757H143.73L142.761 65.8154H136.408L135.439 70.8757ZM142.366 63.4108L139.531 48.9117L136.767 63.4108H142.366Z" fill="#75E2F8"/>
<path d="M154.133 45.5022C156.023 45.5022 157.435 46.0645 158.368 47.189C159.325 48.3135 159.803 49.8568 159.803 51.8187V54.0797H157.148V51.6751C157.148 49.2586 156.167 48.0503 154.205 48.0503C153.224 48.0503 152.482 48.3733 151.98 49.0193C151.501 49.6414 151.262 50.5267 151.262 51.6751V64.954C151.262 66.1025 151.501 66.9997 151.98 67.6457C152.482 68.2678 153.224 68.5788 154.205 68.5788C156.167 68.5788 157.148 67.3705 157.148 64.954V61.6881H159.803V64.8105C159.803 66.6528 159.373 68.1362 158.511 69.2607C157.674 70.3852 156.418 70.9953 154.743 71.091V72.2036C155.58 72.2036 156.226 72.3591 156.681 72.6701C157.159 73.0051 157.399 73.4597 157.399 74.0339C157.399 74.7517 157.1 75.314 156.502 75.7207C155.903 76.1274 155.066 76.3308 153.989 76.3308C152.96 76.3308 152.147 76.1274 151.549 75.7207C150.975 75.3379 150.688 74.7996 150.688 74.1057V73.8186H152.518V74.0698C152.518 74.3569 152.649 74.5962 152.913 74.7876C153.176 74.979 153.535 75.0867 153.989 75.1106C154.468 75.1106 154.839 75.0029 155.102 74.7876C155.389 74.5962 155.533 74.321 155.533 73.9621C155.533 73.6272 155.377 73.364 155.066 73.1726C154.755 72.9812 154.324 72.8855 153.774 72.8855H153.451V71.091C151.8 70.9714 150.556 70.3613 149.719 69.2607C148.905 68.1362 148.498 66.6528 148.498 64.8105V51.8187C148.498 49.8568 148.965 48.3135 149.898 47.189C150.855 46.0645 152.267 45.5022 154.133 45.5022Z" fill="#75E2F8"/>
<path d="M166.69 41.2314C167.049 41.2314 167.36 41.2793 167.623 41.375C167.886 41.4707 168.209 41.6262 168.592 41.8416C169.166 42.1526 169.633 42.3081 169.992 42.3081C170.614 42.2603 171.092 41.9014 171.427 41.2314L172.827 42.2004C172.276 43.5642 171.403 44.2461 170.207 44.2461C169.872 44.2461 169.573 44.1983 169.31 44.1026C169.046 44.0069 168.735 43.8633 168.377 43.6719C167.802 43.3609 167.336 43.2053 166.977 43.2053C166.642 43.2053 166.355 43.2891 166.116 43.4566C165.876 43.6001 165.661 43.8753 165.47 44.282L164.07 43.313C164.596 41.9731 165.47 41.2793 166.69 41.2314ZM164.213 70.8757H161.629L166.439 45.7534H170.494L175.303 70.8757H172.504L171.535 65.8154H165.182L164.213 70.8757ZM171.14 63.4108L168.305 48.9117L165.541 63.4108H171.14Z" fill="#75E2F8"/>
<path d="M177.273 51.8187C177.273 49.8568 177.751 48.3135 178.708 47.189C179.689 46.0645 181.125 45.5022 183.015 45.5022C184.905 45.5022 186.34 46.0645 187.321 47.189C188.302 48.3135 188.793 49.8568 188.793 51.8187V64.8105C188.793 66.7724 188.302 68.3156 187.321 69.4401C186.34 70.5647 184.905 71.1269 183.015 71.1269C181.149 71.1269 179.725 70.5647 178.744 69.4401C177.763 68.3156 177.273 66.7724 177.273 64.8105V51.8187ZM180.036 64.954C180.036 66.1264 180.287 67.0236 180.79 67.6457C181.292 68.2678 182.034 68.5788 183.015 68.5788C185.001 68.5788 185.994 67.3705 185.994 64.954V51.6751C185.994 50.5267 185.742 49.6414 185.24 49.0193C184.761 48.3733 184.02 48.0503 183.015 48.0503C182.034 48.0503 181.292 48.3733 180.79 49.0193C180.287 49.6414 180.036 50.5267 180.036 51.6751V64.954Z" fill="#75E2F8"/>
<path d="M58.6036 91.2551C60.5176 91.2551 61.9412 91.8054 62.8743 92.906C63.8314 93.9827 64.3099 95.5139 64.3099 97.4998V110.169C64.3099 112.131 63.8314 113.662 62.8743 114.762C61.9412 115.839 60.5176 116.377 58.6036 116.377H52.7178V91.2551H58.6036ZM58.5677 113.829C60.5535 113.829 61.5465 112.645 61.5465 110.276V97.3562C61.5465 94.9876 60.5416 93.8032 58.5318 93.8032H55.5171V113.829H58.5677Z" fill="white"/>
<path d="M66.7318 97.3203C66.7318 95.3584 67.2104 93.8152 68.1674 92.6907C69.1484 91.5662 70.5839 91.0039 72.4741 91.0039C74.3642 91.0039 75.7998 91.5662 76.7807 92.6907C77.7617 93.8152 78.2522 95.3584 78.2522 97.3203V110.312C78.2522 112.274 77.7617 113.817 76.7807 114.942C75.7998 116.066 74.3642 116.629 72.4741 116.629C70.6078 116.629 69.1843 116.066 68.2033 114.942C67.2223 113.817 66.7318 112.274 66.7318 110.312V97.3203ZM69.4953 110.456C69.4953 111.628 69.7465 112.525 70.249 113.147C70.7514 113.769 71.4931 114.08 72.4741 114.08C74.4599 114.08 75.4529 112.872 75.4529 110.456V97.1768C75.4529 96.0283 75.2016 95.1431 74.6992 94.521C74.2207 93.875 73.479 93.552 72.4741 93.552C71.4931 93.552 70.7514 93.875 70.249 94.521C69.7465 95.1431 69.4953 96.0283 69.4953 97.1768V110.456Z" fill="white"/>
<path d="M86.1719 91.0039C88.0142 91.0039 89.4019 91.5662 90.335 92.6907C91.292 93.7913 91.7705 95.3225 91.7705 97.2845V97.9664H89.1148V97.1409C89.1148 94.7483 88.1577 93.552 86.2436 93.552C84.3296 93.552 83.3725 94.7363 83.3725 97.105C83.3725 98.3013 83.6955 99.3182 84.3415 100.156C84.9875 100.969 85.9565 101.878 87.2485 102.883C88.2773 103.744 89.0789 104.474 89.6531 105.072C90.2512 105.671 90.7537 106.412 91.1604 107.297C91.5911 108.183 91.8064 109.2 91.8064 110.348C91.8064 112.31 91.3279 113.853 90.3709 114.978C89.4138 116.078 88.0022 116.629 86.136 116.629C84.2698 116.629 82.8581 116.078 81.9011 114.978C80.968 113.853 80.5014 112.31 80.5014 110.348V108.912H83.1213V110.492C83.1213 111.64 83.3606 112.525 83.8391 113.147C84.3415 113.769 85.0832 114.08 86.0642 114.08C87.0452 114.08 87.7749 113.769 88.2534 113.147C88.7559 112.525 89.0071 111.64 89.0071 110.492C89.0071 109.319 88.6841 108.326 88.0381 107.513C87.416 106.699 86.459 105.778 85.167 104.749C84.186 103.936 83.3845 103.23 82.7624 102.632C82.1643 102.01 81.6499 101.256 81.2192 100.371C80.8125 99.4617 80.6091 98.4329 80.6091 97.2845C80.6091 95.2986 81.0756 93.7554 82.0087 92.6548C82.9419 91.5542 84.3296 91.0039 86.1719 91.0039Z" fill="white"/>
<path d="M105.098 91.0039C106.94 91.0039 108.328 91.5662 109.261 92.6907C110.218 93.7913 110.696 95.3225 110.696 97.2845V97.9664H108.041V97.1409C108.041 94.7483 107.084 93.552 105.169 93.552C103.255 93.552 102.298 94.7363 102.298 97.105C102.298 98.3013 102.621 99.3182 103.267 100.156C103.913 100.969 104.882 101.878 106.174 102.883C107.203 103.744 108.005 104.474 108.579 105.072C109.177 105.671 109.679 106.412 110.086 107.297C110.517 108.183 110.732 109.2 110.732 110.348C110.732 112.31 110.254 113.853 109.297 114.978C108.34 116.078 106.928 116.629 105.062 116.629C103.196 116.629 101.784 116.078 100.827 114.978C99.8938 113.853 99.4272 112.31 99.4272 110.348V108.912H102.047V110.492C102.047 111.64 102.286 112.525 102.765 113.147C103.267 113.769 104.009 114.08 104.99 114.08C105.971 114.08 106.701 113.769 107.179 113.147C107.682 112.525 107.933 111.64 107.933 110.492C107.933 109.319 107.61 108.326 106.964 107.513C106.342 106.699 105.385 105.778 104.093 104.749C103.112 103.936 102.31 103.23 101.688 102.632C101.09 102.01 100.576 101.256 100.145 100.371C99.7383 99.4617 99.5349 98.4329 99.5349 97.2845C99.5349 95.2986 100.001 93.7554 100.935 92.6548C101.868 91.5542 103.255 91.0039 105.098 91.0039Z" fill="white"/>
<path d="M122.112 104.893H115.975V113.829H123.511V116.377H113.175V91.2551H123.511V93.8032H115.975V102.381H122.112V104.893Z" fill="white"/>
<path d="M128.764 110.456C128.764 112.872 129.745 114.08 131.706 114.08C132.687 114.08 133.417 113.769 133.896 113.147C134.374 112.525 134.613 111.628 134.613 110.456V91.2551H137.233V110.312C137.233 112.298 136.767 113.853 135.834 114.978C134.901 116.102 133.489 116.664 131.599 116.664C129.733 116.664 128.333 116.102 127.4 114.978C126.467 113.829 126 112.274 126 110.312V91.2551H128.764V110.456Z" fill="white"/>
<path d="M145.262 91.0039C147.105 91.0039 148.492 91.5662 149.426 92.6907C150.383 93.7913 150.861 95.3225 150.861 97.2845V97.9664H148.205V97.1409C148.205 94.7483 147.248 93.552 145.334 93.552C143.42 93.552 142.463 94.7363 142.463 97.105C142.463 98.3013 142.786 99.3182 143.432 100.156C144.078 100.969 145.047 101.878 146.339 102.883C147.368 103.744 148.169 104.474 148.744 105.072C149.342 105.671 149.844 106.412 150.251 107.297C150.682 108.183 150.897 109.2 150.897 110.348C150.897 112.31 150.418 113.853 149.461 114.978C148.504 116.078 147.093 116.629 145.227 116.629C143.36 116.629 141.949 116.078 140.992 114.978C140.059 113.853 139.592 112.31 139.592 110.348V108.912H142.212V110.492C142.212 111.64 142.451 112.525 142.93 113.147C143.432 113.769 144.174 114.08 145.155 114.08C146.136 114.08 146.865 113.769 147.344 113.147C147.846 112.525 148.098 111.64 148.098 110.492C148.098 109.319 147.775 108.326 147.129 107.513C146.507 106.699 145.55 105.778 144.258 104.749C143.277 103.936 142.475 103.23 141.853 102.632C141.255 102.01 140.74 101.256 140.31 100.371C139.903 99.4617 139.7 98.4329 139.7 97.2845C139.7 95.2986 140.166 93.7554 141.099 92.6548C142.032 91.5542 143.42 91.0039 145.262 91.0039Z" fill="white"/>
<path d="M55.5171 160.278H52.7178V135.156H55.5171V160.278Z" fill="#75E2F8"/>
<path d="M58.3596 160.278V135.156H61.9126L67.7266 153.315V135.156H70.203V160.278H67.296L60.8719 139.965V160.278H58.3596Z" fill="#75E2F8"/>
<path d="M79.2893 157.012L83.3448 135.156H85.9288L81.2273 160.278H77.1001L72.3628 135.156H75.198L79.2893 157.012Z" fill="#75E2F8"/>
<path d="M97.0173 148.793H90.8803V157.73H98.417V160.278H88.081V135.156H98.417V137.704H90.8803V146.281H97.0173V148.793Z" fill="#75E2F8"/>
<path d="M106.289 134.904C108.132 134.904 109.519 135.467 110.452 136.591C111.409 137.692 111.888 139.223 111.888 141.185V141.867H109.232V141.041C109.232 138.649 108.275 137.452 106.361 137.452C104.447 137.452 103.49 138.637 103.49 141.005C103.49 142.202 103.813 143.219 104.459 144.056C105.105 144.869 106.074 145.779 107.366 146.784C108.395 147.645 109.196 148.375 109.771 148.973C110.369 149.571 110.871 150.313 111.278 151.198C111.709 152.083 111.924 153.1 111.924 154.248C111.924 156.21 111.445 157.754 110.488 158.878C109.531 159.979 108.12 160.529 106.253 160.529C104.387 160.529 102.976 159.979 102.019 158.878C101.085 157.754 100.619 156.21 100.619 154.248V152.813H103.239V154.392C103.239 155.54 103.478 156.426 103.957 157.048C104.459 157.67 105.201 157.981 106.182 157.981C107.163 157.981 107.892 157.67 108.371 157.048C108.873 156.426 109.125 155.54 109.125 154.392C109.125 153.22 108.802 152.227 108.156 151.413C107.533 150.6 106.576 149.679 105.284 148.65C104.303 147.836 103.502 147.13 102.88 146.532C102.282 145.91 101.767 145.157 101.337 144.271C100.93 143.362 100.727 142.333 100.727 141.185C100.727 139.199 101.193 137.656 102.126 136.555C103.059 135.455 104.447 134.904 106.289 134.904Z" fill="#75E2F8"/>
<path d="M118.027 137.704H113.398V135.156H125.456V137.704H120.827V160.278H118.027V137.704Z" fill="#75E2F8"/>
<path d="M130.204 160.278H127.405V135.156H130.204V160.278Z" fill="#75E2F8"/>
<path d="M139.65 160.242L135.487 140.252V160.278H133.046V135.156H136.958L141.086 155.217L145.069 135.156H148.981V160.278H146.325V140.072L142.342 160.242H139.65Z" fill="#75E2F8"/>
<path d="M160.804 148.793H154.667V157.73H162.204V160.278H151.868V135.156H162.204V137.704H154.667V146.281H160.804V148.793Z" fill="#75E2F8"/>
<path d="M164.765 160.278V135.156H168.318L174.132 153.315V135.156H176.608V160.278H173.701L167.277 139.965V160.278H164.765Z" fill="#75E2F8"/>
<path d="M183.146 137.704H178.517V135.156H190.575V137.704H185.946V160.278H183.146V137.704Z" fill="#75E2F8"/>
<path d="M192.308 141.221C192.308 139.259 192.787 137.716 193.744 136.591C194.725 135.467 196.16 134.904 198.05 134.904C199.94 134.904 201.376 135.467 202.357 136.591C203.338 137.716 203.828 139.259 203.828 141.221V154.213C203.828 156.174 203.338 157.718 202.357 158.842C201.376 159.967 199.94 160.529 198.05 160.529C196.184 160.529 194.76 159.967 193.779 158.842C192.798 157.718 192.308 156.174 192.308 154.213V141.221ZM195.071 154.356C195.071 155.528 195.323 156.426 195.825 157.048C196.328 157.67 197.069 157.981 198.05 157.981C200.036 157.981 201.029 156.773 201.029 154.356V141.077C201.029 139.929 200.778 139.043 200.275 138.421C199.797 137.775 199.055 137.452 198.05 137.452C197.069 137.452 196.328 137.775 195.825 138.421C195.323 139.043 195.071 139.929 195.071 141.077V154.356Z" fill="#75E2F8"/>
<path d="M211.748 134.904C213.59 134.904 214.978 135.467 215.911 136.591C216.868 137.692 217.347 139.223 217.347 141.185V141.867H214.691V141.041C214.691 138.649 213.734 137.452 211.82 137.452C209.906 137.452 208.949 138.637 208.949 141.005C208.949 142.202 209.272 143.219 209.918 144.056C210.564 144.869 211.533 145.779 212.825 146.784C213.854 147.645 214.655 148.375 215.229 148.973C215.827 149.571 216.33 150.313 216.737 151.198C217.167 152.083 217.383 153.1 217.383 154.248C217.383 156.21 216.904 157.754 215.947 158.878C214.99 159.979 213.578 160.529 211.712 160.529C209.846 160.529 208.434 159.979 207.477 158.878C206.544 157.754 206.078 156.21 206.078 154.248V152.813H208.697V154.392C208.697 155.54 208.937 156.426 209.415 157.048C209.918 157.67 210.659 157.981 211.64 157.981C212.621 157.981 213.351 157.67 213.83 157.048C214.332 156.426 214.583 155.54 214.583 154.392C214.583 153.22 214.26 152.227 213.614 151.413C212.992 150.6 212.035 149.679 210.743 148.65C209.762 147.836 208.961 147.13 208.339 146.532C207.74 145.91 207.226 145.157 206.795 144.271C206.389 143.362 206.185 142.333 206.185 141.185C206.185 139.199 206.652 137.656 207.585 136.555C208.518 135.455 209.906 134.904 211.748 134.904Z" fill="#75E2F8"/>
<path d="M36 32.4263H25.8479V154.57H36V32.4263Z" fill="#75E2F8"/>
<path d="M31.4151 0.379395H30.4327V162H31.4151V0.379395Z" fill="#75E2F8"/>
<path d="M10.1521 80.981H-2.23271e-06V157.355H10.1521V80.981Z" fill="#75E2F8"/>
<path d="M5.5672 60.9424H4.58474V162H5.5672V60.9424Z" fill="#75E2F8"/>
</svg>
