<svg width="55" height="44" viewBox="0 0 55 44" fill="none" xmlns="http://www.w3.org/2000/svg">
<path d="M14.9862 40.5635C15.4286 40.5635 15.787 40.205 15.787 39.7627V39.0003H15.828C17.1094 39.0003 18.152 37.9578 18.152 36.6764C18.152 35.3949 17.1094 34.3524 15.828 34.3524H14.1446C13.7463 34.3524 13.4221 34.0283 13.4221 33.63C13.4221 33.2318 13.7462 32.9077 14.1446 32.9077H17.1107C17.5531 32.9077 17.9115 32.5491 17.9115 32.1069C17.9115 31.6646 17.5531 31.3061 17.1107 31.3061H15.7871V30.5437C15.7871 30.1014 15.4287 29.7429 14.9863 29.7429C14.5439 29.7429 14.1855 30.1014 14.1855 30.5437V31.3061H14.1446C12.8631 31.3061 11.8205 32.3486 11.8205 33.63C11.8205 34.9115 12.8631 35.954 14.1446 35.954H15.8281C16.2264 35.954 16.5505 36.2781 16.5505 36.6764C16.5505 37.0746 16.2265 37.3987 15.8281 37.3987H12.862C12.4196 37.3987 12.0612 37.7572 12.0612 38.1995C12.0612 38.6418 12.4196 39.0003 12.862 39.0003H14.1856V39.7627C14.1854 40.205 14.5439 40.5635 14.9862 40.5635Z" fill="#91CEDB"/>
<path d="M53.8685 42.1851H51.3742V24.9762C51.3742 24.5339 51.0157 24.1754 50.5733 24.1754C50.131 24.1754 49.7725 24.5339 49.7725 24.9762V42.1851H47.7882V16.8987H49.7725V21.239C49.7725 21.6813 50.131 22.0399 50.5733 22.0399C51.0157 22.0399 51.3742 21.6813 51.3742 21.239V16.6322C51.3742 15.896 50.7753 15.2971 50.0389 15.2971H47.5218C46.7855 15.2971 46.1866 15.896 46.1866 16.6322V42.185H44.4414V22.168C44.4414 21.4318 43.8425 20.8329 43.1063 20.8329H40.5892C39.8528 20.8329 39.2539 21.4318 39.2539 22.168V42.1851H37.5088V25.4631C37.5088 24.7269 36.9099 24.128 36.1735 24.128H33.6565C32.9202 24.128 32.3213 24.7269 32.3213 25.4631V42.1851H30.5761V33.1077C30.5761 32.3715 29.9772 31.7725 29.2409 31.7725H26.7239C25.9875 31.7725 25.3886 32.3715 25.3886 33.1077V42.1851H19.9927C20.0639 42.1342 20.1352 42.0834 20.2051 42.0302C21.6665 40.9189 22.7547 39.3413 23.2694 37.5878C23.394 37.1634 23.1509 36.7184 22.7265 36.5938C22.302 36.4692 21.857 36.7124 21.7325 37.1367C20.8601 40.1091 18.0859 42.1851 14.9862 42.1851C11.1089 42.1851 7.95438 39.0306 7.95438 35.1532C7.95438 31.2759 11.1089 28.1214 14.9862 28.1214C18.334 28.1214 21.2346 30.5014 21.8832 33.7805C21.969 34.2143 22.3903 34.4968 22.8242 34.4107C23.258 34.3249 23.5402 33.9035 23.4544 33.4697C22.7101 29.7068 19.5515 26.9086 15.787 26.5576V24.3379L17.1748 22.9501C20.4878 22.688 23.5937 21.2574 25.9503 18.901C28.2036 16.6477 29.6294 13.664 29.965 10.4996C30.0078 10.0954 29.8678 9.6988 29.5807 9.41179C29.2936 9.12477 28.898 8.98415 28.4927 9.0275C25.3284 9.3631 22.3449 10.7889 20.0914 13.0423C17.7351 15.3986 16.3045 18.5045 16.0422 21.8177L15.787 22.0728V18.2268C15.787 17.7845 15.4286 17.426 14.9862 17.426C14.5438 17.426 14.1854 17.7845 14.1854 18.2268V22.0728L13.9303 21.8178C13.6681 18.5046 12.2374 15.3986 9.88104 13.0423C7.62764 10.7889 4.644 9.3631 1.4797 9.0275C1.07523 8.98436 0.678876 9.12467 0.391863 9.41179C0.104849 9.69891 -0.0352411 10.0954 0.00757609 10.4996C0.343066 13.6639 1.76884 16.6476 4.02224 18.901C6.37879 21.2574 9.48469 22.688 12.7976 22.9501L14.1854 24.3379V26.5583C9.79914 26.9638 6.35274 30.6629 6.35274 35.1532C6.35274 39.9137 10.2257 43.7867 14.9862 43.7867H53.8685C54.3108 43.7867 54.6693 43.4281 54.6693 42.9859C54.6693 42.5436 54.3107 42.1851 53.8685 42.1851ZM21.2241 14.1746C23.141 12.2577 25.6543 11.0173 28.3329 10.6595C27.975 13.3379 26.7346 15.8515 24.8177 17.7684C23.2301 19.356 21.258 20.4677 19.1135 21.0114L23.9187 16.2063C24.2314 15.8935 24.2314 15.3864 23.9187 15.0738C23.6058 14.761 23.0988 14.761 22.7861 15.0738L17.9811 19.8788C18.5248 17.7342 19.6364 15.7622 21.2241 14.1746ZM6.05376 16.2062L10.8589 21.0113C8.71451 20.4676 6.74247 19.3559 5.15482 17.7684C3.23787 15.8515 1.99745 13.3379 1.63965 10.6595C4.31801 11.0173 6.83152 12.2578 8.74836 14.1746C10.336 15.7622 11.4477 17.7342 11.9914 19.8787L7.18634 15.0737C6.87348 14.7609 6.36651 14.7609 6.05376 15.0737C5.74102 15.3863 5.74102 15.8934 6.05376 16.2062ZM40.8557 22.4345H42.8399V42.1851H40.8557V22.4345ZM33.923 25.7296H35.9072V42.1851H33.923V25.7296ZM26.9904 33.3741H28.9746V42.1851H26.9904V33.3741Z" fill="#91CEDB"/>
<path d="M44.0225 3.73422L25.9072 21.8495C25.4236 22.3331 25.1573 22.976 25.1573 23.6598C25.1573 24.3436 25.4236 24.9865 25.9072 25.4701C26.4062 25.969 27.0617 26.2186 27.7173 26.2186C28.373 26.2186 29.0284 25.969 29.5276 25.47L34.2437 20.7538C34.5564 20.441 34.5564 19.9339 34.2437 19.6213C33.931 19.3086 33.424 19.3086 33.1111 19.6213L28.3952 24.3374C28.0212 24.7111 27.4132 24.7111 27.0397 24.3374C26.8587 24.1564 26.7589 23.9156 26.7589 23.6597C26.7589 23.4037 26.8587 23.163 27.0397 22.982L45.4946 4.52704C45.7064 4.3153 45.8231 4.03373 45.8231 3.73412C45.8231 3.43461 45.7064 3.15304 45.4947 2.94141L44.9654 2.41202L49.6741 1.69512L48.923 6.36967L48.4358 5.88234C47.9985 5.4452 47.2873 5.4451 46.8502 5.88234L35.7536 16.9788C35.4409 17.2916 35.4409 17.7986 35.7536 18.1113C36.0664 18.424 36.5733 18.424 36.8862 18.1113L47.6428 7.35467L48.4553 8.16724C48.7545 8.46643 49.1905 8.57139 49.5933 8.44101C49.9959 8.31064 50.2877 7.97013 50.355 7.55221L51.3598 1.29877C51.4163 0.946412 51.3 0.584762 51.0487 0.33149C50.7974 0.0782173 50.437 -0.0410514 50.084 0.0126569L43.785 0.971718C43.3646 1.03568 43.0211 1.32643 42.8885 1.73036C42.756 2.1344 42.8603 2.57218 43.1611 2.87286L44.0225 3.73422Z" fill="#91CEDB"/>
</svg>
