<svg width="51" height="45" viewBox="0 0 51 45" fill="none" xmlns="http://www.w3.org/2000/svg">
<path d="M49.4062 37.6406H46.2188V11.7422C46.2179 11.0027 45.9238 10.2938 45.4009 9.77092C44.8781 9.24805 44.1691 8.95394 43.4297 8.95312H41.4375V2.97656C41.4367 2.23711 41.1426 1.52817 40.6197 1.0053C40.0968 0.482426 39.3879 0.188317 38.6484 0.1875H12.3516C11.6121 0.188317 10.9032 0.482426 10.3803 1.0053C9.85743 1.52817 9.56332 2.23711 9.5625 2.97656V8.95312H7.57031C6.83086 8.95394 6.12192 9.24805 5.59905 9.77092C5.07618 10.2938 4.78207 11.0027 4.78125 11.7422V37.6406H1.59375C1.38241 37.6406 1.17972 37.7246 1.03027 37.874C0.880831 38.0235 0.796875 38.2262 0.796875 38.4375V42.0234C0.797692 42.7629 1.0918 43.4718 1.61468 43.9947C2.13755 44.5176 2.84648 44.8117 3.58594 44.8125H47.4141C48.1535 44.8117 48.8624 44.5176 49.3853 43.9947C49.9082 43.4718 50.2023 42.7629 50.2031 42.0234V38.4375C50.2031 38.2262 50.1192 38.0235 49.9697 37.874C49.8203 37.7246 49.6176 37.6406 49.4062 37.6406ZM11.1562 2.97656C11.1565 2.65963 11.2825 2.35575 11.5066 2.13164C11.7307 1.90753 12.0346 1.78151 12.3516 1.78125H38.6484C38.9654 1.78151 39.2693 1.90753 39.4934 2.13164C39.7175 2.35575 39.8435 2.65963 39.8438 2.97656V4.96875H11.1562V2.97656ZM11.1562 6.5625H39.8438V26.8828C39.8435 27.1997 39.7175 27.5036 39.4934 27.7277C39.2693 27.9518 38.9654 28.0779 38.6484 28.0781H12.3516C12.0346 28.0779 11.7307 27.9518 11.5066 27.7277C11.2825 27.5036 11.1565 27.1997 11.1562 26.8828V6.5625ZM12.3516 29.6719H38.6484C39.3879 29.6711 40.0968 29.3769 40.6197 28.8541C41.1426 28.3312 41.4367 27.6223 41.4375 26.8828V12.9375H42.2344V35.25H8.76562V12.9375H9.5625V26.8828C9.56332 27.6223 9.85743 28.3312 10.3803 28.8541C10.9032 29.3769 11.6121 29.6711 12.3516 29.6719ZM6.375 11.7422C6.37526 11.4253 6.50128 11.1214 6.72539 10.8973C6.9495 10.6732 7.25338 10.5471 7.57031 10.5469H9.5625V11.3438H7.96875C7.75741 11.3438 7.55472 11.4277 7.40527 11.5771C7.25583 11.7266 7.17188 11.9293 7.17188 12.1406V36.0469C7.17188 36.2582 7.25583 36.4609 7.40527 36.6104C7.55472 36.7598 7.75741 36.8438 7.96875 36.8438H43.0312C43.2426 36.8438 43.4453 36.7598 43.5947 36.6104C43.7442 36.4609 43.8281 36.2582 43.8281 36.0469V12.1406C43.8281 11.9293 43.7442 11.7266 43.5947 11.5771C43.4453 11.4277 43.2426 11.3438 43.0312 11.3438H41.4375V10.5469H43.4297C43.7466 10.5471 44.0505 10.6732 44.2746 10.8973C44.4987 11.1214 44.6247 11.4253 44.625 11.7422V37.6406H6.375V11.7422ZM29.2603 39.2344L28.8618 40.8281H22.1382L21.7397 39.2344H29.2603ZM48.6094 42.0234C48.6091 42.3404 48.4831 42.6443 48.259 42.8684C48.0349 43.0925 47.731 43.2185 47.4141 43.2188H3.58594C3.269 43.2185 2.96512 43.0925 2.74102 42.8684C2.51691 42.6443 2.39089 42.3404 2.39062 42.0234V39.2344H20.0962L20.7427 41.8182C20.7857 41.9906 20.8852 42.1437 21.0253 42.2531C21.1653 42.3624 21.3379 42.4218 21.5156 42.4219H29.4844C29.6621 42.4218 29.8347 42.3624 29.9747 42.2531C30.1148 42.1437 30.2143 41.9906 30.2573 41.8182L30.9038 39.2344H48.6094V42.0234Z" fill="#75E2F8"/>
<path d="M25.5 8.15625C23.7663 8.15625 22.0716 8.67034 20.6301 9.63352C19.1886 10.5967 18.065 11.9657 17.4016 13.5674C16.7381 15.1691 16.5646 16.9316 16.9028 18.632C17.241 20.3323 18.0758 21.8942 19.3017 23.1201C20.5276 24.346 22.0895 25.1808 23.7899 25.5191C25.4902 25.8573 27.2527 25.6837 28.8544 25.0202C30.4561 24.3568 31.8251 23.2333 32.7883 21.7918C33.7515 20.3503 34.2656 18.6555 34.2656 16.9219C34.263 14.5979 33.3386 12.3699 31.6953 10.7266C30.052 9.08325 27.824 8.15889 25.5 8.15625ZM25.5 24.0937C24.0815 24.0937 22.6949 23.6731 21.5155 22.8851C20.3361 22.097 19.4168 20.9769 18.874 19.6664C18.3312 18.3559 18.1892 16.9139 18.4659 15.5227C18.7426 14.1315 19.4257 12.8536 20.4287 11.8506C21.4317 10.8476 22.7096 10.1645 24.1008 9.8878C25.492 9.61108 26.934 9.7531 28.2445 10.2959C29.555 10.8387 30.6751 11.758 31.4632 12.9374C32.2512 14.1168 32.6718 15.5034 32.6718 16.9219C32.6697 18.8233 31.9134 20.6462 30.5688 21.9907C29.2243 23.3352 27.4014 24.0916 25.5 24.0937Z" fill="#75E2F8"/>
<path d="M29.4844 15.3281C29.4835 14.6944 29.2314 14.0868 28.7832 13.6386C28.3351 13.1905 27.7275 12.9383 27.0938 12.9375H27.0868C27.0627 12.745 26.9691 12.568 26.8236 12.4396C26.6782 12.3112 26.4909 12.2404 26.2969 12.2404C26.1029 12.2404 25.9156 12.3112 25.7701 12.4396C25.6247 12.568 25.5311 12.745 25.507 12.9375H24.7031C24.7031 12.7262 24.6192 12.5235 24.4697 12.374C24.3203 12.2246 24.1176 12.1406 23.9063 12.1406C23.6949 12.1406 23.4922 12.2246 23.3428 12.374C23.1933 12.5235 23.1094 12.7262 23.1094 12.9375H22.3125C22.1012 12.9375 21.8985 13.0215 21.749 13.1709C21.5996 13.3203 21.5156 13.523 21.5156 13.7344C21.5156 13.9457 21.5996 14.1484 21.749 14.2979C21.8985 14.4473 22.1012 14.5312 22.3125 14.5312V19.3125C22.1012 19.3125 21.8985 19.3965 21.749 19.5459C21.5996 19.6953 21.5156 19.898 21.5156 20.1094C21.5156 20.3207 21.5996 20.5234 21.749 20.6729C21.8985 20.8223 22.1012 20.9062 22.3125 20.9062H23.1094C23.1094 21.1176 23.1933 21.3203 23.3428 21.4697C23.4922 21.6192 23.6949 21.7031 23.9063 21.7031C24.1176 21.7031 24.3203 21.6192 24.4697 21.4697C24.6192 21.3203 24.7031 21.1176 24.7031 20.9062H25.5C25.5 21.1176 25.584 21.3203 25.7334 21.4697C25.8828 21.6192 26.0855 21.7031 26.2969 21.7031C26.5082 21.7031 26.7109 21.6192 26.8604 21.4697C27.0098 21.3203 27.0938 21.1176 27.0938 20.9062C27.5554 20.9065 28.0072 20.7731 28.3946 20.522C28.7819 20.271 29.0883 19.9131 29.2766 19.4916C29.4649 19.0702 29.527 18.6032 29.4556 18.1471C29.3841 17.6911 29.182 17.2655 28.8738 16.9219C29.2673 16.4843 29.4848 15.9166 29.4844 15.3281ZM27.0938 19.3125H23.9063V17.7188H27.0938C27.3051 17.7188 27.5078 17.8027 27.6572 17.9521C27.8067 18.1016 27.8906 18.3043 27.8906 18.5156C27.8906 18.727 27.8067 18.9297 27.6572 19.0791C27.5078 19.2285 27.3051 19.3125 27.0938 19.3125ZM27.0938 16.125H23.9063V14.5312H27.0938C27.3051 14.5312 27.5078 14.6152 27.6572 14.7646C27.8067 14.9141 27.8906 15.1168 27.8906 15.3281C27.8906 15.5395 27.8067 15.7422 27.6572 15.8916C27.5078 16.041 27.3051 16.125 27.0938 16.125Z" fill="#75E2F8"/>
<path d="M12.75 4.17188H13.5469C13.7582 4.17188 13.9609 4.08792 14.1104 3.93848C14.2598 3.78903 14.3438 3.58634 14.3438 3.375C14.3438 3.16366 14.2598 2.96097 14.1104 2.81152C13.9609 2.66208 13.7582 2.57812 13.5469 2.57812H12.75C12.5387 2.57812 12.336 2.66208 12.1865 2.81152C12.0371 2.96097 11.9531 3.16366 11.9531 3.375C11.9531 3.58634 12.0371 3.78903 12.1865 3.93848C12.336 4.08792 12.5387 4.17188 12.75 4.17188Z" fill="#75E2F8"/>
<path d="M15.9375 4.17188H16.7344C16.9457 4.17188 17.1484 4.08792 17.2979 3.93848C17.4473 3.78903 17.5312 3.58634 17.5312 3.375C17.5312 3.16366 17.4473 2.96097 17.2979 2.81152C17.1484 2.66208 16.9457 2.57812 16.7344 2.57812H15.9375C15.7262 2.57812 15.5235 2.66208 15.374 2.81152C15.2246 2.96097 15.1406 3.16366 15.1406 3.375C15.1406 3.58634 15.2246 3.78903 15.374 3.93848C15.5235 4.08792 15.7262 4.17188 15.9375 4.17188Z" fill="#75E2F8"/>
<path d="M19.125 4.17188H19.9219C20.1332 4.17188 20.3359 4.08792 20.4854 3.93848C20.6348 3.78903 20.7188 3.58634 20.7188 3.375C20.7188 3.16366 20.6348 2.96097 20.4854 2.81152C20.3359 2.66208 20.1332 2.57812 19.9219 2.57812H19.125C18.9137 2.57812 18.711 2.66208 18.5615 2.81152C18.4121 2.96097 18.3281 3.16366 18.3281 3.375C18.3281 3.58634 18.4121 3.78903 18.5615 3.93848C18.711 4.08792 18.9137 4.17188 19.125 4.17188Z" fill="#75E2F8"/>
</svg>
