<svg width="55" height="48" viewBox="0 0 55 48" fill="none" xmlns="http://www.w3.org/2000/svg">
<path d="M47.1892 24.4036H21.6486C21.0131 24.4036 20.496 24.9206 20.496 25.5561V40.1872C20.496 40.8227 21.0131 41.3396 21.6486 41.3396H47.1892C47.8248 41.3396 48.3418 40.8226 48.3418 40.1872V36.9525C48.3418 36.5091 47.9824 36.1496 47.5389 36.1496C47.0955 36.1496 46.7361 36.5091 46.7361 36.9525V39.7338H22.1018V26.0092H46.7361V33.2059C46.7361 33.6493 47.0955 34.0087 47.5389 34.0087C47.9824 34.0087 48.3418 33.6493 48.3418 33.2059V25.556C48.3418 24.9206 47.8246 24.4036 47.1892 24.4036Z" fill="#101F38"/>
<path d="M24.0316 28.4795C24.475 28.4795 24.8344 28.12 24.8344 27.6766C24.8344 27.2332 24.475 26.8738 24.0316 26.8738C23.5882 26.8738 23.2288 27.2332 23.2288 27.6766C23.2288 28.12 23.5882 28.4795 24.0316 28.4795Z" fill="#101F38"/>
<path d="M26.3866 28.4795C26.83 28.4795 27.1895 28.12 27.1895 27.6766C27.1895 27.2332 26.83 26.8738 26.3866 26.8738C25.9432 26.8738 25.5838 27.2332 25.5838 27.6766C25.5838 28.12 25.9432 28.4795 26.3866 28.4795Z" fill="#101F38"/>
<path d="M28.7417 28.4795C29.1851 28.4795 29.5445 28.12 29.5445 27.6766C29.5445 27.2332 29.1851 26.8738 28.7417 26.8738C28.2983 26.8738 27.9388 27.2332 27.9388 27.6766C27.9388 28.12 28.2983 28.4795 28.7417 28.4795Z" fill="#101F38"/>
<path d="M53.4215 42.6476H51.2553V23.4582C51.2553 22.3729 50.3723 21.4898 49.287 21.4898H36.9199V13.0815C36.9199 12.6381 36.5605 12.2786 36.117 12.2786C35.6735 12.2786 35.3142 12.6381 35.3142 13.0815V21.4898H19.5507C18.5066 21.4898 17.6521 22.3077 17.5886 23.3362H1.60568V5.72435C1.60568 5.52439 1.76839 5.36168 1.96835 5.36168H19.1402V18.1495H17.7799V10.2482C17.7799 9.62839 17.2757 9.12421 16.6559 9.12421H13.6593C13.0395 9.12421 12.5353 9.62839 12.5353 10.2482V18.1495H11.175V14.3667C11.175 13.747 10.6708 13.2428 10.051 13.2428H7.05427C6.43448 13.2428 5.9303 13.747 5.9303 14.3667V18.1495H4.49589C4.05251 18.1495 3.69306 18.509 3.69306 18.9523C3.69306 19.3957 4.05251 19.7552 4.49589 19.7552H29.8656C30.4854 19.7552 30.9896 19.251 30.9896 18.6312V8.58309C30.9896 7.9633 30.4854 7.45912 29.8656 7.45912H26.869C26.2492 7.45912 25.745 7.9633 25.745 8.58309V18.1495H24.3847V5.36168H34.9516C35.1516 5.36168 35.3143 5.52439 35.3143 5.72435V9.33487C35.3143 9.77825 35.6736 10.1377 36.1171 10.1377C36.5606 10.1377 36.92 9.77825 36.92 9.33487V5.72435C36.92 4.63902 36.037 3.756 34.9516 3.756H24.3847V1.12397C24.3847 0.504182 23.8805 0 23.2607 0H20.2641C19.6443 0 19.1401 0.504182 19.1401 1.12397V3.756H1.96835C0.883015 3.756 0 4.63902 0 5.72435V27.4024C0 28.4877 0.883015 29.3707 1.96835 29.3707H7.38611C7.82949 29.3707 8.18895 29.0113 8.18895 28.5679C8.18895 28.1245 7.82949 27.765 7.38611 27.765H1.96835C1.76839 27.765 1.60568 27.6023 1.60568 27.4024V24.9418H17.5824V27.765H11.1327C10.6893 27.765 10.3299 28.1245 10.3299 28.5679C10.3299 29.0113 10.6893 29.3707 11.1327 29.3707H13.0534V34.1752H8.72814C7.32146 34.1752 6.17704 35.3196 6.17704 36.7263V38.1249C6.17704 38.8889 6.79865 39.5105 7.56263 39.5105H17.5824V42.6476H15.4163C14.6523 42.6476 14.0307 43.2692 14.0307 44.0332V46.6144C14.0307 47.3785 14.6523 48 15.4163 48H53.4215C54.1856 48 54.8071 47.3784 54.8071 46.6144V44.0332C54.8071 43.2692 54.1855 42.6476 53.4215 42.6476ZM9.5693 18.1495H7.53598V14.8484H9.56919V18.1495H9.5693ZM16.1741 18.1495H14.1409V10.7299H16.1741V18.1495ZM27.3507 9.0649H29.3839V18.1496H27.3507V9.0649ZM20.7458 1.60568H22.779V18.1495H20.7458V1.60568ZM19.1881 23.4582C19.1881 23.2582 19.3508 23.0955 19.5507 23.0955H49.287C49.487 23.0955 49.6497 23.2582 49.6497 23.4582V42.6476H19.1881V23.4582ZM14.6591 29.3707H17.5824V34.1752H14.6591V29.3707ZM7.78282 37.9048V36.7263C7.78282 36.205 8.20693 35.7809 8.72824 35.7809H17.5825V37.9048H7.78282ZM15.6364 46.3944V44.2534H29.0042L29.7807 46.3944H15.6364ZM37.3784 46.3944H31.4887L30.7122 44.2534H38.1354L37.3784 46.3944ZM53.2014 46.3944H39.0815L39.8384 44.2534H53.2014V46.3944Z" fill="#101F38"/>
<path d="M43.615 36.8548C44.8672 36.8548 45.8859 35.836 45.8859 34.5838C45.8859 33.3316 44.8672 32.3128 43.615 32.3128C43.2951 32.3128 42.991 32.3801 42.7147 32.4998L41.1897 30.9248C41.3284 30.6312 41.4083 30.3048 41.4083 29.9592C41.4083 28.707 40.3896 27.6882 39.1374 27.6882C37.8852 27.6882 36.8664 28.707 36.8664 29.9592C36.8664 30.1888 36.9013 30.4104 36.965 30.6195L31.372 34.9288C31.0254 34.7144 30.6186 34.5883 30.182 34.5883C29.836 34.5883 29.5091 34.6684 29.2153 34.8073L27.3021 32.9569C27.4247 32.6781 27.4939 32.3706 27.4939 32.047C27.4939 30.7948 26.4751 29.7761 25.2229 29.7761C23.9707 29.7761 22.9519 30.7948 22.9519 32.047C22.9519 33.2993 23.9707 34.318 25.2229 34.318C25.5646 34.318 25.8876 34.24 26.1787 34.1042L28.0976 35.9602C27.978 36.2362 27.9111 36.54 27.9111 36.8594C27.9111 38.1116 28.9299 39.1304 30.1821 39.1304C31.4343 39.1304 32.453 38.1116 32.453 36.8594C32.453 36.6298 32.4181 36.4082 32.3545 36.199L37.9475 31.8897C38.2941 32.1041 38.7008 32.2302 39.1376 32.2302C39.4574 32.2302 39.7616 32.163 40.0378 32.0432L41.5629 33.6183C41.4243 33.9118 41.3443 34.2383 41.3443 34.5838C41.344 35.836 42.3627 36.8548 43.615 36.8548ZM43.615 33.9186C43.9818 33.9186 44.2802 34.2171 44.2802 34.5839C44.2802 34.9508 43.9818 35.2492 43.615 35.2492C43.2481 35.2492 42.9497 34.9508 42.9497 34.5839C42.9497 34.2171 43.2482 33.9186 43.615 33.9186ZM25.2228 32.7124C24.8559 32.7124 24.5575 32.414 24.5575 32.0471C24.5575 31.6803 24.8559 31.3819 25.2228 31.3819C25.5896 31.3819 25.8881 31.6803 25.8881 32.0471C25.8881 32.414 25.5896 32.7124 25.2228 32.7124ZM30.1819 37.5247C29.815 37.5247 29.5166 37.2262 29.5166 36.8594C29.5166 36.4925 29.815 36.1941 30.1819 36.1941C30.5487 36.1941 30.8472 36.4925 30.8472 36.8594C30.8472 37.2262 30.5487 37.5247 30.1819 37.5247ZM39.1373 30.6246C38.7704 30.6246 38.472 30.3262 38.472 29.9593C38.472 29.5925 38.7704 29.294 39.1373 29.294C39.5041 29.294 39.8025 29.5925 39.8025 29.9593C39.8025 30.3262 39.5041 30.6246 39.1373 30.6246Z" fill="#101F38"/>
<path d="M4.71 8.62256H8.67067C9.11405 8.62256 9.47351 8.26309 9.47351 7.8197C9.47351 7.37631 9.11405 7.01685 8.67067 7.01685H4.71C4.26662 7.01685 3.90717 7.37631 3.90717 7.8197C3.90717 8.26309 4.26662 8.62256 4.71 8.62256Z" fill="#101F38"/>
<path d="M4.71 11.0847H8.67067C9.11405 11.0847 9.47351 10.7253 9.47351 10.2819C9.47351 9.83847 9.11405 9.479 8.67067 9.479H4.71C4.26662 9.479 3.90717 9.83847 3.90717 10.2819C3.90717 10.7253 4.26662 11.0847 4.71 11.0847Z" fill="#101F38"/>
</svg>
